<svg width="303" height="331" viewBox="0 0 303 331" fill="none" xmlns="http://www.w3.org/2000/svg">
<ellipse cx="151.007" cy="177.253" rx="151.007" ry="150.915" fill="#F3F8FF"/>
<g filter="url(#filter0_dii_165_380)">
<ellipse cx="151.007" cy="179.18" rx="97.3929" ry="97.3332" fill="#F3F9FF"/>
</g>
<g filter="url(#filter1_f_165_380)">
<ellipse cx="134.498" cy="159.801" rx="56.9694" ry="56.671" fill="white" fill-opacity="0.84"/>
</g>
<g filter="url(#filter2_dii_165_380)">
<ellipse cx="151.007" cy="179.261" rx="65.7643" ry="65.724" fill="#F3F9FF"/>
</g>
<path d="M150.552 212.076V224.981H148.763L142.203 215.516H142.083V224.981H140.136V212.076H141.938L148.504 221.553H148.624V212.076H150.552ZM153.393 224.981V212.076H161.483V213.752H155.34V217.684H161.061V219.354H155.34V223.305H161.559V224.981H153.393Z" fill="#47515C"/>
<path d="M106.473 193.415V189.513L116.884 180.593C117.834 179.775 118.637 179.037 119.295 178.379C119.952 177.722 120.449 177.079 120.785 176.45C121.136 175.807 121.311 175.121 121.311 174.39C121.311 173.163 120.829 172.198 119.865 171.497C118.915 170.781 117.739 170.423 116.336 170.423C114.846 170.423 113.648 170.81 112.742 171.585C111.836 172.359 111.383 173.397 111.383 174.697H106.188C106.188 172.096 107.145 170.021 109.059 168.472C110.974 166.924 113.428 166.149 116.424 166.149C118.44 166.149 120.201 166.507 121.706 167.223C123.211 167.939 124.38 168.911 125.213 170.138C126.06 171.366 126.484 172.754 126.484 174.302C126.484 175.53 126.236 176.67 125.739 177.722C125.242 178.774 124.468 179.84 123.415 180.922C122.363 182.003 121.012 183.201 119.361 184.516L114.276 188.812V189.009H127.12V193.415H106.473ZM143.207 193.765C141.731 193.765 140.307 193.531 138.933 193.064C137.574 192.596 136.354 191.844 135.273 190.806C134.192 189.769 133.337 188.417 132.709 186.752C132.08 185.071 131.766 183.026 131.766 180.615C131.766 177.634 132.234 175.055 133.169 172.878C134.119 170.701 135.463 169.02 137.202 167.837C138.955 166.639 141.044 166.04 143.47 166.04C146.378 166.04 148.723 166.821 150.506 168.385C152.303 169.948 153.326 171.826 153.574 174.018H148.27C148.036 172.966 147.488 172.155 146.626 171.585C145.764 171.015 144.712 170.73 143.47 170.73C141.381 170.73 139.788 171.534 138.692 173.141C137.611 174.734 137.07 176.925 137.07 179.716H137.245C137.932 178.489 138.955 177.539 140.314 176.867C141.673 176.18 143.163 175.837 144.785 175.837C146.509 175.837 148.058 176.209 149.432 176.955C150.805 177.7 151.894 178.715 152.697 180.001C153.501 181.287 153.903 182.763 153.903 184.428C153.903 186.24 153.45 187.855 152.544 189.272C151.653 190.675 150.403 191.778 148.796 192.582C147.189 193.371 145.326 193.765 143.207 193.765ZM143.185 189.557C144.208 189.557 145.136 189.338 145.969 188.9C146.801 188.461 147.459 187.869 147.941 187.124C148.438 186.379 148.686 185.539 148.686 184.604C148.686 183.698 148.445 182.88 147.963 182.149C147.481 181.404 146.823 180.819 145.991 180.396C145.172 179.957 144.244 179.738 143.207 179.738C142.155 179.738 141.198 179.957 140.336 180.396C139.488 180.819 138.824 181.418 138.341 182.193C137.874 182.953 137.655 183.837 137.684 184.845C137.713 186.043 138.232 187.132 139.24 188.111C140.248 189.075 141.563 189.557 143.185 189.557ZM169.963 193.984C166.354 193.984 163.519 192.75 161.459 190.28C159.413 187.796 158.39 184.37 158.39 180.001C158.39 175.632 159.413 172.235 161.459 169.809C163.519 167.369 166.354 166.149 169.963 166.149C173.543 166.149 176.363 167.362 178.423 169.787C180.498 172.198 181.535 175.603 181.535 180.001C181.535 184.414 180.498 187.848 178.423 190.302C176.363 192.757 173.543 193.984 169.963 193.984ZM169.963 189.469C171.804 189.469 173.272 188.68 174.368 187.102C175.479 185.51 176.034 183.143 176.034 180.001C176.034 176.86 175.479 174.5 174.368 172.922C173.272 171.344 171.804 170.555 169.963 170.555C168.151 170.555 166.69 171.344 165.579 172.922C164.469 174.5 163.914 176.86 163.914 180.001C163.914 183.113 164.454 185.473 165.536 187.08C166.631 188.673 168.107 189.469 169.963 189.469Z" fill="#47515C"/>
<path d="M190.938 155.775C194.16 155.775 196.752 158.367 196.752 161.552C196.752 164.773 194.16 167.366 190.938 167.366C187.791 167.366 185.161 164.773 185.161 161.552C185.161 158.367 187.791 155.775 190.938 155.775ZM190.938 165.144C192.938 165.144 194.53 163.551 194.53 161.552C194.53 159.589 192.938 157.996 190.938 157.996C189.013 157.996 187.383 159.589 187.383 161.552C187.383 163.551 189.013 165.144 190.938 165.144Z" fill="#47515C"/>
<path d="M149.502 67.5799C148.744 67.5799 148.093 67.3881 147.55 67.0046C147.01 66.6179 146.594 66.061 146.303 65.3338C146.014 64.6035 145.87 63.7244 145.87 62.6964C145.873 61.6685 146.019 60.794 146.307 60.0729C146.599 59.3488 147.015 58.7964 147.555 58.416C148.098 58.0355 148.747 57.8452 149.502 57.8452C150.256 57.8452 150.905 58.0355 151.449 58.416C151.992 58.7964 152.407 59.3488 152.696 60.0729C152.987 60.7971 153.133 61.6716 153.133 62.6964C153.133 63.7274 152.987 64.6081 152.696 65.3384C152.407 66.0656 151.992 66.621 151.449 67.0046C150.909 67.3881 150.26 67.5799 149.502 67.5799ZM149.502 66.1393C150.091 66.1393 150.556 65.8493 150.896 65.2693C151.24 64.6863 151.412 63.8287 151.412 62.6964C151.412 61.9477 151.334 61.3187 151.177 60.8093C151.021 60.3 150.8 59.9164 150.514 59.6587C150.229 59.3979 149.891 59.2674 149.502 59.2674C148.916 59.2674 148.452 59.559 148.112 60.142C147.771 60.7219 147.599 61.5734 147.596 62.6964C147.593 63.4482 147.668 64.0803 147.822 64.5928C147.978 65.1052 148.199 65.4918 148.484 65.7526C148.77 66.0104 149.109 66.1393 149.502 66.1393ZM156.437 64.2249C157.564 64.2249 158.471 65.1322 158.471 66.2468C158.471 67.3745 157.564 68.2817 156.437 68.2817C155.335 68.2817 154.415 67.3745 154.415 66.2468C154.415 65.1322 155.335 64.2249 156.437 64.2249ZM156.437 67.5041C157.136 67.5041 157.694 66.9468 157.694 66.2468C157.694 65.5599 157.136 65.0026 156.437 65.0026C155.763 65.0026 155.192 65.5599 155.192 66.2468C155.192 66.9468 155.763 67.5041 156.437 67.5041Z" fill="#333333"/>
<path opacity="0.5" d="M86.5493 84.5063C86.0996 84.7658 85.6531 84.9201 85.2099 84.9692C84.7689 85.0171 84.3664 84.9627 84.0023 84.8061C83.6391 84.6461 83.3446 84.3882 83.1188 84.0326L84.1471 83.4393C84.2749 83.6303 84.4411 83.7643 84.6456 83.8413C84.8511 83.9148 85.0748 83.9341 85.3167 83.8993C85.5585 83.8645 85.7995 83.7778 86.0397 83.6393C86.3039 83.4868 86.511 83.3062 86.6611 83.0974C86.8133 82.8873 86.9 82.6671 86.9212 82.4366C86.941 82.204 86.8886 81.9796 86.7638 81.7636C86.6339 81.5388 86.4619 81.3746 86.2479 81.2712C86.0347 81.1643 85.7896 81.1253 85.5123 81.1543C85.2373 81.1821 84.9447 81.2854 84.6347 81.4643L84.0682 81.7912L83.5916 80.9662L84.1581 80.6393C84.407 80.4957 84.5995 80.325 84.7355 80.1272C84.8738 79.9281 84.9504 79.718 84.9653 79.497C84.979 79.2737 84.9234 79.0541 84.7986 78.838C84.6788 78.6307 84.5278 78.4777 84.3457 78.3791C84.1645 78.2771 83.9635 78.2315 83.7428 78.2425C83.5243 78.2522 83.3004 78.3231 83.0712 78.4554C82.8528 78.5814 82.672 78.7395 82.5288 78.9299C82.3864 79.1168 82.2991 79.3184 82.267 79.5349C82.2336 79.7491 82.2717 79.9613 82.3815 80.1715L81.4024 80.7365C81.204 80.3679 81.1269 79.9875 81.1711 79.5954C81.2174 79.202 81.3639 78.8308 81.6106 78.4819C81.8573 78.1329 82.1859 77.84 82.5963 77.6032C83.0264 77.3551 83.4461 77.2249 83.8553 77.2129C84.2655 77.1973 84.6359 77.279 84.9663 77.458C85.2989 77.6356 85.5593 77.8899 85.7475 78.2207C85.9665 78.5948 86.0458 78.9739 85.9853 79.358C85.9271 79.7408 85.7491 80.0778 85.4515 80.3688L85.4818 80.4212C85.9662 80.2319 86.4133 80.2096 86.823 80.3544C87.2348 80.498 87.562 80.7821 87.8044 81.2068C88.0197 81.5744 88.1081 81.9642 88.0696 82.3763C88.0333 82.7872 87.8858 83.1793 87.6271 83.5527C87.367 83.9239 87.0078 84.2418 86.5493 84.5063ZM92.6976 80.9588C92.2479 81.2183 91.8014 81.3726 91.3582 81.4217C90.9172 81.4695 90.5146 81.4152 90.1506 81.2586C89.7874 81.0985 89.4929 80.8407 89.2671 80.485L90.2953 79.8917C90.4232 80.0828 90.5894 80.2168 90.7939 80.2937C90.9994 80.3672 91.2231 80.3866 91.4649 80.3518C91.7068 80.317 91.9478 80.2303 92.188 80.0917C92.4521 79.9393 92.6593 79.7587 92.8093 79.5499C92.9616 79.3398 93.0483 79.1195 93.0694 78.8891C93.0893 78.6565 93.0369 78.4321 92.912 78.216C92.7822 77.9912 92.6102 77.8271 92.3962 77.7236C92.183 77.6167 91.9378 77.5778 91.6606 77.6068C91.3855 77.6345 91.093 77.7379 90.783 77.9167L90.2165 78.2436L89.7399 77.4186L90.3064 77.0917C90.5553 76.9481 90.7478 76.7774 90.8838 76.5796C91.0221 76.3805 91.0986 76.1705 91.1136 75.9494C91.1273 75.7262 91.0717 75.5066 90.9469 75.2905C90.8271 75.0832 90.6761 74.9302 90.494 74.8316C90.3128 74.7295 90.1118 74.684 89.8911 74.6949C89.6725 74.7046 89.4487 74.7756 89.2194 74.9079C89.0011 75.0338 88.8203 75.192 88.677 75.3823C88.5347 75.5692 88.4474 75.7709 88.4153 75.9873C88.3818 76.2016 88.42 76.4138 88.5298 76.624L87.5507 77.189C87.3523 76.8204 87.2752 76.44 87.3193 76.0479C87.3657 75.6545 87.5122 75.2833 87.7589 74.9343C88.0056 74.5854 88.3341 74.2925 88.7446 74.0557C89.1747 73.8075 89.5943 73.6774 90.0036 73.6653C90.4138 73.6498 90.7841 73.7315 91.1145 73.9104C91.4471 74.0881 91.7075 74.3423 91.8957 74.6731C92.1148 75.0473 92.1941 75.4264 92.1336 75.8105C92.0753 76.1933 91.8974 76.5302 91.5998 76.8213L91.63 76.8736C92.1145 76.6843 92.5616 76.6621 92.9712 76.8069C93.3831 76.9505 93.7102 77.2346 93.9527 77.6592C94.1679 78.0268 94.2563 78.4167 94.2179 78.8288C94.1816 79.2397 94.0341 79.6318 93.7753 80.0052C93.5153 80.3764 93.1561 80.6942 92.6976 80.9588ZM98.8572 77.4309C98.3385 77.7272 97.8176 77.8459 97.2945 77.7869C96.7714 77.7279 96.2633 77.4958 95.7702 77.0907C95.2771 76.6856 94.8199 76.1185 94.3988 75.3896C93.979 74.6628 93.7174 73.9858 93.6141 73.3586C93.5131 72.7302 93.5678 72.1748 93.7782 71.6926C93.9908 71.2091 94.3536 70.8193 94.8667 70.5233C95.3797 70.2272 95.8984 70.1098 96.4228 70.171C96.9459 70.23 97.4534 70.461 97.9453 70.864C98.438 71.2635 98.8944 71.8266 99.3142 72.5534C99.7366 73.2845 100 73.9648 100.105 74.5941C100.208 75.2213 100.155 75.7771 99.9457 76.2616C99.7353 76.7438 99.3724 77.1336 98.8572 77.4309ZM98.3522 76.5568C98.8063 76.2948 99.0331 75.8685 99.0326 75.2781C99.0343 74.6864 98.793 73.9715 98.3089 73.1335C97.9874 72.5769 97.6567 72.1406 97.3169 71.8245C96.978 71.505 96.6421 71.3089 96.309 71.2362C95.9769 71.1602 95.6613 71.2084 95.3622 71.381C94.9103 71.6417 94.6841 72.0691 94.6837 72.6629C94.6833 73.2568 94.9234 73.9723 95.4042 74.8095C95.7269 75.3682 96.0578 75.8073 96.3966 76.1269C96.7364 76.443 97.0718 76.638 97.4026 76.7119C97.7323 76.7836 98.0488 76.7319 98.3522 76.5568ZM102.328 72.2683C103.13 71.8054 104.149 72.0782 104.607 72.8711C105.07 73.6731 104.797 74.6909 103.995 75.1538C103.211 75.6061 102.184 75.3385 101.72 74.5365C101.262 73.7437 101.544 72.7206 102.328 72.2683ZM103.675 74.6007C104.173 74.3133 104.341 73.6881 104.053 73.1903C103.771 72.7017 103.146 72.5341 102.648 72.8214C102.168 73.0981 101.991 73.7286 102.274 74.2172C102.561 74.7151 103.196 74.8774 103.675 74.6007Z" fill="#333333"/>
<path opacity="0.5" d="M205.918 77.9282C205.468 77.6687 205.111 77.3595 204.847 77.0005C204.585 76.6427 204.431 76.2671 204.384 75.8737C204.341 75.4794 204.418 75.0956 204.613 74.7223L205.641 75.3156C205.54 75.5217 205.507 75.7326 205.542 75.9481C205.581 76.1627 205.676 76.3659 205.827 76.5579C205.978 76.7498 206.174 76.9151 206.414 77.0536C206.678 77.2061 206.938 77.295 207.194 77.3205C207.453 77.3473 207.687 77.3122 207.897 77.2152C208.109 77.1161 208.277 76.9585 208.402 76.7425C208.531 76.5177 208.588 76.2868 208.57 76.0498C208.556 75.8119 208.468 75.5802 208.304 75.3547C208.142 75.1306 207.906 74.929 207.596 74.7502L207.03 74.4233L207.507 73.5983L208.073 73.9252C208.322 74.0688 208.566 74.15 208.806 74.1689C209.047 74.189 209.268 74.1502 209.467 74.0526C209.667 73.9528 209.829 73.7949 209.954 73.5789C210.074 73.3715 210.131 73.1644 210.125 72.9574C210.123 72.7496 210.062 72.5529 209.942 72.3673C209.825 72.183 209.651 72.0247 209.422 71.8925C209.204 71.7665 208.976 71.6891 208.74 71.6603C208.507 71.6305 208.288 71.6558 208.085 71.7362C207.882 71.8144 207.717 71.9536 207.59 72.1537L206.611 71.5887C206.831 71.2327 207.122 70.9758 207.484 70.8179C207.848 70.6614 208.243 70.6026 208.669 70.6416C209.095 70.6806 209.513 70.8186 209.923 71.0554C210.353 71.3036 210.676 71.6017 210.891 71.9499C211.109 72.2972 211.224 72.6585 211.234 73.034C211.246 73.4106 211.156 73.7631 210.964 74.0914C210.749 74.4681 210.46 74.7263 210.097 74.866C209.736 75.0069 209.355 75.0214 208.954 74.9093L208.924 74.9617C209.33 75.2863 209.573 75.6622 209.652 76.0892C209.734 76.5174 209.651 76.9426 209.404 77.3647C209.194 77.7348 208.9 78.0063 208.524 78.1791C208.149 78.3531 207.736 78.4215 207.283 78.3842C206.831 78.3448 206.376 78.1928 205.918 77.9282ZM212.127 81.537C211.611 81.2363 211.247 80.8448 211.037 80.3625C210.826 79.8803 210.773 79.3245 210.878 78.6951C210.982 78.0657 211.245 77.3866 211.666 76.6576C212.086 75.9308 212.542 75.366 213.034 74.963C213.528 74.5613 214.037 74.331 214.56 74.272C215.085 74.2142 215.604 74.3334 216.117 74.6294C216.63 74.9254 216.991 75.3156 217.201 75.8001C217.411 76.2823 217.465 76.8371 217.361 77.4642C217.261 78.0905 217.002 78.767 216.582 79.4938C216.159 80.2249 215.702 80.7931 215.209 81.1982C214.717 81.6012 214.209 81.8332 213.684 81.8944C213.161 81.9534 212.642 81.8343 212.127 81.537ZM212.632 80.6629C213.086 80.9249 213.568 80.9081 214.08 80.6124C214.593 80.318 215.092 79.7518 215.576 78.9137C215.898 78.3572 216.111 77.8528 216.215 77.4007C216.322 76.9476 216.324 76.5588 216.221 76.2342C216.12 75.9087 215.921 75.6597 215.622 75.4871C215.17 75.2264 214.686 75.2443 214.172 75.5409C213.657 75.8374 213.157 76.4031 212.672 77.2377C212.349 77.7964 212.134 78.3023 212.026 78.7554C211.922 79.2075 211.921 79.5952 212.022 79.9186C212.125 80.2397 212.328 80.4878 212.632 80.6629ZM218.525 82.0688C219.327 82.5317 219.6 83.5495 219.142 84.3424C218.679 85.1444 217.66 85.4173 216.858 84.9543C216.074 84.5021 215.792 83.479 216.255 82.6769C216.713 81.8841 217.741 81.6166 218.525 82.0688ZM217.177 84.4012C217.675 84.6885 218.301 84.5209 218.589 84.0231C218.871 83.5345 218.703 82.9093 218.205 82.622C217.726 82.3453 217.091 82.5076 216.809 82.9962C216.521 83.494 216.698 84.1245 217.177 84.4012Z" fill="#333333"/>
<path opacity="0.5" d="M246.71 117.423C246.542 117.121 246.426 116.795 246.363 116.444C246.302 116.096 246.325 115.733 246.433 115.356C246.542 114.98 246.761 114.601 247.092 114.221C247.424 113.844 247.899 113.476 248.517 113.12C249.102 112.782 249.655 112.54 250.176 112.394C250.698 112.25 251.179 112.198 251.618 112.238C252.06 112.277 252.453 112.406 252.797 112.623C253.141 112.841 253.425 113.144 253.649 113.532C253.88 113.932 254.006 114.332 254.028 114.732C254.05 115.133 253.978 115.509 253.812 115.861C253.647 116.216 253.402 116.521 253.079 116.777L252.502 115.779C252.742 115.55 252.893 115.284 252.954 114.981C253.015 114.679 252.952 114.366 252.765 114.043C252.482 113.552 252.046 113.292 251.46 113.264C250.874 113.238 250.2 113.444 249.437 113.881L249.465 113.93C249.722 113.936 249.965 113.985 250.195 114.076C250.429 114.168 250.643 114.298 250.836 114.466C251.032 114.635 251.198 114.836 251.333 115.07C251.557 115.458 251.665 115.865 251.657 116.288C251.652 116.713 251.538 117.115 251.314 117.494C251.091 117.874 250.765 118.187 250.337 118.433C249.91 118.68 249.466 118.807 249.007 118.813C248.548 118.821 248.117 118.709 247.712 118.477C247.31 118.244 246.976 117.892 246.71 117.423ZM247.56 116.928C247.709 117.186 247.905 117.38 248.149 117.509C248.393 117.639 248.656 117.702 248.938 117.696C249.22 117.69 249.493 117.611 249.757 117.459C250.015 117.31 250.216 117.117 250.361 116.879C250.507 116.643 250.584 116.389 250.593 116.117C250.602 115.846 250.534 115.583 250.386 115.328C250.274 115.134 250.133 114.975 249.963 114.852C249.794 114.731 249.608 114.647 249.405 114.598C249.202 114.549 248.995 114.538 248.783 114.564C248.575 114.591 248.376 114.659 248.189 114.767C247.938 114.912 247.739 115.104 247.591 115.343C247.446 115.584 247.366 115.844 247.352 116.123C247.342 116.402 247.411 116.671 247.56 116.928ZM250.17 123.457C249.873 122.938 249.754 122.418 249.813 121.895C249.872 121.372 250.104 120.864 250.509 120.371C250.915 119.879 251.482 119.422 252.211 119.001C252.938 118.582 253.615 118.32 254.243 118.217C254.871 118.117 255.427 118.171 255.91 118.382C256.393 118.594 256.783 118.957 257.08 119.47C257.376 119.983 257.494 120.502 257.433 121.026C257.374 121.548 257.143 122.056 256.74 122.547C256.34 123.04 255.777 123.496 255.05 123.915C254.318 124.337 253.638 124.6 253.008 124.705C252.381 124.808 251.825 124.754 251.34 124.545C250.858 124.335 250.468 123.972 250.17 123.457ZM251.044 122.953C251.307 123.406 251.733 123.633 252.324 123.633C252.916 123.635 253.631 123.394 254.469 122.91C255.026 122.589 255.462 122.258 255.778 121.919C256.098 121.58 256.294 121.244 256.367 120.912C256.443 120.58 256.394 120.264 256.222 119.965C255.961 119.513 255.533 119.287 254.939 119.287C254.345 119.286 253.629 119.526 252.792 120.006C252.233 120.329 251.794 120.659 251.474 120.998C251.158 121.337 250.963 121.673 250.889 122.003C250.817 122.333 250.869 122.649 251.044 122.953ZM255.336 126.928C255.799 127.73 255.526 128.747 254.733 129.205C253.931 129.668 252.913 129.395 252.449 128.593C251.997 127.809 252.264 126.782 253.066 126.32C253.86 125.862 254.883 126.144 255.336 126.928ZM253.003 128.274C253.29 128.772 253.916 128.939 254.414 128.652C254.903 128.37 255.07 127.745 254.783 127.247C254.506 126.768 253.875 126.591 253.386 126.873C252.888 127.16 252.726 127.794 253.003 128.274Z" fill="#333333"/>
<path opacity="0.5" d="M48.2926 127.784C48.0329 128.233 47.7234 128.59 47.3641 128.854C47.0061 129.116 46.6303 129.27 46.2367 129.317C45.8422 129.36 45.4582 129.284 45.0848 129.089L45.6787 128.061C45.8849 128.162 46.0958 128.195 46.3114 128.159C46.5261 128.12 46.7295 128.025 46.9216 127.874C47.1137 127.723 47.279 127.528 47.4177 127.288C47.5703 127.023 47.6594 126.763 47.6849 126.508C47.7118 126.25 47.6767 126.015 47.5798 125.805C47.4807 125.594 47.3231 125.426 47.107 125.301C46.8821 125.171 46.6511 125.115 46.414 125.133C46.176 125.147 45.9441 125.235 45.7186 125.399C45.4942 125.561 45.2925 125.796 45.1135 126.106L44.7863 126.673L43.9611 126.197L44.2883 125.63C44.432 125.381 44.5133 125.137 44.5323 124.898C44.5524 124.657 44.5137 124.436 44.4161 124.237C44.3164 124.037 44.1584 123.875 43.9423 123.75C43.7349 123.63 43.5277 123.573 43.3206 123.579C43.1127 123.581 42.9159 123.642 42.7302 123.762C42.5458 123.88 42.3874 124.053 42.255 124.282C42.1289 124.501 42.0514 124.728 42.0225 124.965C41.9926 125.198 42.0179 125.416 42.0983 125.619C42.1765 125.822 42.3156 125.986 42.5158 126.113L41.9503 127.092C41.5942 126.872 41.3373 126.581 41.1795 126.22C41.0229 125.856 40.9642 125.461 41.0034 125.036C41.0425 124.61 41.1806 124.192 41.4177 123.782C41.666 123.352 41.9644 123.029 42.3128 122.814C42.6603 122.596 43.0219 122.481 43.3975 122.471C43.7743 122.459 44.127 122.549 44.4554 122.741C44.8321 122.955 45.0904 123.244 45.23 123.607C45.371 123.968 45.3853 124.348 45.2731 124.749L45.3255 124.78C45.6504 124.373 46.0265 124.131 46.4537 124.051C46.8821 123.97 47.3075 124.052 47.7298 124.299C48.1 124.509 48.3715 124.803 48.5442 125.179C48.7183 125.553 48.7866 125.966 48.7492 126.419C48.7096 126.87 48.5574 127.325 48.2926 127.784ZM51.8631 121.649C51.562 122.165 51.1703 122.528 50.6877 122.738C50.2052 122.949 49.6491 123.002 49.0195 122.897C48.3899 122.793 47.7105 122.531 46.9813 122.11C46.2543 121.69 45.6893 121.235 45.2863 120.743C44.8845 120.25 44.6542 119.741 44.5953 119.219C44.5377 118.694 44.657 118.175 44.9533 117.662C45.2496 117.149 45.6401 116.788 46.1248 116.579C46.6074 116.368 47.1624 116.314 47.7898 116.417C48.4163 116.517 49.0931 116.777 49.8201 117.196C50.5514 117.618 51.1197 118.075 51.5249 118.568C51.9279 119.06 52.16 119.568 52.221 120.092C52.2799 120.615 52.1606 121.133 51.8631 121.649ZM50.9887 121.144C51.2509 120.69 51.2342 120.208 50.9386 119.696C50.6442 119.183 50.0778 118.685 49.2395 118.201C48.6828 117.88 48.1782 117.667 47.7259 117.563C47.2727 117.456 46.8837 117.454 46.5589 117.558C46.2333 117.658 45.984 117.858 45.8113 118.157C45.5503 118.608 45.5681 119.092 45.8647 119.606C46.1613 120.121 46.727 120.62 47.5619 121.105C48.1208 121.427 48.6269 121.642 49.0801 121.75C49.5324 121.853 49.9204 121.855 50.2438 121.753C50.5652 121.65 50.8134 121.447 50.9887 121.144ZM55.3514 115.61C55.0504 116.126 54.6587 116.489 54.1761 116.7C53.6936 116.91 53.1375 116.963 52.5079 116.859C51.8783 116.755 51.1989 116.492 50.4697 116.072C49.7427 115.652 49.1777 115.197 48.7747 114.705C48.3729 114.211 48.1426 113.703 48.0837 113.18C48.0261 112.655 48.1454 112.136 48.4417 111.623C48.738 111.11 49.1285 110.749 49.6132 110.54C50.0958 110.33 50.6508 110.276 51.2782 110.379C51.9047 110.479 52.5815 110.738 53.3085 111.158C54.0398 111.58 54.6081 112.037 55.0133 112.53C55.4163 113.021 55.6484 113.529 55.7094 114.053C55.7683 114.576 55.649 115.095 55.3514 115.61ZM54.4771 115.106C54.7393 114.652 54.7226 114.169 54.427 113.658C54.1326 113.145 53.5662 112.646 52.7279 112.163C52.1711 111.841 51.6666 111.629 51.2143 111.525C50.7611 111.418 50.3721 111.416 50.0473 111.52C49.7216 111.62 49.4724 111.819 49.2997 112.118C49.0387 112.57 49.0565 113.053 49.3531 113.568C49.6497 114.082 50.2154 114.582 51.0503 115.067C51.6092 115.389 52.1153 115.604 52.5685 115.711C53.0208 115.815 53.4087 115.816 53.7322 115.715C54.0535 115.612 54.3018 115.409 54.4771 115.106ZM55.776 109.404C56.2393 108.602 57.2577 108.329 58.0507 108.787C58.853 109.249 59.1257 110.267 58.6624 111.069C58.2097 111.853 57.186 112.135 56.3838 111.672C55.5907 111.214 55.3233 110.187 55.776 109.404ZM58.1091 110.75C58.3967 110.252 58.2292 109.627 57.7312 109.34C57.2424 109.058 56.6169 109.225 56.3293 109.723C56.0524 110.202 56.2146 110.837 56.7033 111.119C57.2013 111.406 57.8321 111.229 58.1091 110.75Z" fill="#333333"/>
<path opacity="0.5" d="M54.6961 237.691L53.9625 238.115L50.3006 237.203C49.9052 237.108 49.5661 237.037 49.2832 236.991C48.9969 236.944 48.7437 236.931 48.5236 236.953C48.3036 236.976 48.0953 237.043 47.8988 237.157C47.6762 237.285 47.5143 237.448 47.4133 237.646C47.31 237.846 47.2671 238.061 47.2844 238.293C47.2996 238.525 47.3727 238.755 47.5038 238.982C47.6425 239.222 47.8127 239.404 48.0143 239.526C48.2159 239.648 48.434 239.706 48.6685 239.698C48.903 239.691 49.1403 239.618 49.3805 239.48L49.9384 240.445C49.5301 240.681 49.119 240.793 48.7049 240.782C48.2908 240.77 47.9052 240.649 47.5479 240.419C47.1885 240.19 46.8884 239.867 46.6476 239.45C46.4042 239.029 46.274 238.609 46.2567 238.192C46.236 237.773 46.3175 237.39 46.501 237.042C46.6823 236.696 46.9531 236.419 47.3133 236.211C47.5622 236.068 47.8327 235.974 48.1249 235.931C48.4158 235.885 48.7738 235.892 49.1987 235.953C49.6215 236.014 50.1581 236.13 50.8087 236.298L52.9735 236.826L53.0226 236.798L51.2789 233.779L52.1467 233.278L54.6961 237.691ZM50.1664 232.874L49.3477 233.346L43.0958 233.09L42.7232 232.445L43.9283 231.75L44.1647 232.159L48.6432 232.338L48.6956 232.308L46.4015 228.337L47.2595 227.842L50.1664 232.874ZM49.6399 228.939L48.0811 229.839L47.704 230.047L42.9294 232.802L42.3752 231.843L49.0819 227.973L49.6399 228.939ZM46.581 223.387C46.8776 223.906 46.9965 224.427 46.9376 224.949C46.8787 225.472 46.6467 225.98 46.2415 226.473C45.8363 226.966 45.2691 227.422 44.5399 227.843C43.8129 228.263 43.1357 228.524 42.5083 228.627C41.8796 228.728 41.324 228.673 40.8414 228.463C40.3576 228.25 39.9676 227.887 39.6713 227.374C39.375 226.861 39.2574 226.343 39.3185 225.819C39.3773 225.296 39.6083 224.789 40.0113 224.297C40.4109 223.805 40.9742 223.349 41.7012 222.929C42.4325 222.507 43.113 222.244 43.7426 222.14C44.3701 222.037 44.9262 222.09 45.4109 222.299C45.8934 222.509 46.2835 222.872 46.581 223.387ZM45.7067 223.892C45.4444 223.438 45.0179 223.211 44.4272 223.211C43.8353 223.21 43.1201 223.451 42.2818 223.934C41.7251 224.256 41.2886 224.586 40.9725 224.925C40.6529 225.264 40.4568 225.6 40.3842 225.933C40.3082 226.265 40.3565 226.58 40.5293 226.879C40.7903 227.331 41.2178 227.557 41.812 227.558C42.4061 227.558 43.1219 227.318 43.9593 226.838C44.5182 226.516 44.9575 226.185 45.277 225.846C45.5932 225.507 45.7882 225.172 45.862 224.841C45.9337 224.512 45.8819 224.195 45.7067 223.892ZM67.5304 223.141C67.0671 222.339 67.3398 221.321 68.1328 220.864C68.9351 220.401 69.9534 220.674 70.4168 221.476C70.8695 222.259 70.6021 223.286 69.7998 223.749C69.0067 224.207 67.9831 223.925 67.5304 223.141ZM69.8635 221.795C69.5759 221.297 68.9504 221.13 68.4524 221.417C67.9636 221.699 67.7961 222.324 68.0837 222.822C68.3606 223.301 68.9915 223.478 69.4803 223.196C69.9782 222.909 70.1404 222.274 69.8635 221.795Z" fill="#333333"/>
<path opacity="0.5" d="M259.069 231.138L252.363 227.268L252.949 226.253L258.641 229.537L258.663 229.498L258.542 227.289L259.511 227.848L259.639 230.152L259.069 231.138ZM251.197 229.286L251.93 229.709L252.971 233.335C253.087 233.724 253.195 234.053 253.296 234.321C253.399 234.593 253.514 234.818 253.644 234.997C253.773 235.177 253.936 235.323 254.132 235.436C254.355 235.565 254.577 235.623 254.799 235.612C255.024 235.602 255.232 235.531 255.424 235.4C255.618 235.271 255.78 235.093 255.912 234.866C256.05 234.626 256.122 234.388 256.127 234.152C256.132 233.916 256.073 233.699 255.95 233.5C255.826 233.3 255.644 233.131 255.404 232.993L255.962 232.027C256.37 232.263 256.673 232.562 256.87 232.926C257.068 233.29 257.156 233.685 257.135 234.109C257.116 234.535 256.986 234.956 256.745 235.373C256.502 235.794 256.203 236.117 255.85 236.34C255.497 236.568 255.125 236.689 254.732 236.704C254.341 236.72 253.966 236.624 253.606 236.416C253.357 236.272 253.14 236.085 252.957 235.854C252.772 235.625 252.599 235.311 252.439 234.913C252.281 234.517 252.112 233.995 251.933 233.347L251.308 231.21L251.259 231.182L249.515 234.2L248.647 233.699L251.197 229.286ZM246.353 237.414C246.654 236.898 247.045 236.535 247.528 236.325C248.011 236.114 248.567 236.061 249.196 236.165C249.826 236.27 250.505 236.532 251.234 236.953C251.961 237.373 252.526 237.828 252.929 238.32C253.331 238.813 253.562 239.322 253.62 239.844C253.678 240.369 253.559 240.888 253.262 241.401C252.966 241.914 252.576 242.275 252.091 242.484C251.608 242.695 251.053 242.749 250.426 242.646C249.799 242.546 249.123 242.286 248.396 241.867C247.664 241.445 247.096 240.988 246.691 240.495C246.288 240.003 246.056 239.495 245.995 238.971C245.936 238.448 246.055 237.929 246.353 237.414ZM247.227 237.919C246.965 238.373 246.981 238.855 247.277 239.366C247.572 239.88 248.138 240.378 248.976 240.862C249.533 241.183 250.037 241.396 250.49 241.499C250.943 241.607 251.332 241.609 251.657 241.505C251.982 241.405 252.232 241.205 252.404 240.906C252.665 240.454 252.648 239.971 252.351 239.457C252.054 238.942 251.489 238.443 250.654 237.958C250.095 237.636 249.589 237.421 249.136 237.313C248.683 237.21 248.295 237.208 247.972 237.31C247.651 237.413 247.402 237.616 247.227 237.919ZM245.928 243.621C245.465 244.423 244.446 244.696 243.653 244.238C242.851 243.775 242.578 242.757 243.042 241.955C243.494 241.172 244.518 240.89 245.32 241.353C246.113 241.81 246.381 242.837 245.928 243.621ZM243.595 242.275C243.307 242.772 243.475 243.398 243.973 243.685C244.462 243.967 245.087 243.799 245.375 243.302C245.652 242.822 245.49 242.188 245.001 241.906C244.503 241.618 243.872 241.795 243.595 242.275Z" fill="#333333"/>
<path opacity="0.5" d="M102.773 280.941L102.287 281.635L98.5823 282.356C98.1839 282.437 97.8467 282.516 97.5707 282.594C97.2912 282.672 97.0565 282.768 96.8664 282.881C96.6764 282.994 96.5163 283.143 96.3861 283.329C96.2386 283.54 96.1608 283.756 96.1529 283.978C96.1436 284.202 96.1957 284.416 96.3093 284.618C96.4214 284.823 96.5848 285 96.7996 285.151C97.0267 285.31 97.2575 285.402 97.4919 285.427C97.7264 285.453 97.9483 285.413 98.1578 285.307C98.3672 285.202 98.5515 285.035 98.7106 284.808L99.6244 285.448C99.3539 285.834 99.0287 286.109 98.6486 286.274C98.2685 286.438 97.8679 286.492 97.4468 286.434C97.0242 286.378 96.6157 286.212 96.2213 285.936C95.8227 285.658 95.5273 285.332 95.3351 284.961C95.1394 284.59 95.0513 284.209 95.0708 283.816C95.0889 283.426 95.2172 283.06 95.4558 282.72C95.6207 282.484 95.8264 282.285 96.0728 282.122C96.3172 281.958 96.6447 281.814 97.0554 281.689C97.4646 281.566 97.9996 281.444 98.6606 281.322L100.846 280.885L100.878 280.838L98.0221 278.84L98.597 278.019L102.773 280.941ZM90.3795 281.719L94.8225 275.378L95.7828 276.05L92.0123 281.431L92.0495 281.457L94.2615 281.529L93.6194 282.445L91.3119 282.372L90.3795 281.719ZM90.778 272.391C91.266 272.735 91.5938 273.157 91.7614 273.656C91.929 274.154 91.9333 274.713 91.7743 275.331C91.6153 275.948 91.2943 276.602 90.8112 277.292C90.3296 277.979 89.8263 278.502 89.3011 278.86C88.7739 279.218 88.2472 279.403 87.7209 279.416C87.1926 279.428 86.6858 279.264 86.2005 278.924C85.7152 278.585 85.3894 278.164 85.2233 277.663C85.0557 277.165 85.0507 276.607 85.2082 275.992C85.3622 275.377 85.68 274.725 86.1617 274.038C86.6462 273.346 87.1517 272.82 87.6783 272.46C88.2034 272.101 88.7298 271.914 89.2576 271.899C89.7838 271.886 90.2907 272.05 90.778 272.391ZM90.1988 273.217C89.7692 272.917 89.2869 272.892 88.7516 273.142C88.2144 273.39 87.668 273.911 87.1126 274.703C86.7438 275.23 86.4879 275.714 86.3449 276.155C86.1983 276.597 86.1625 276.984 86.2374 277.316C86.3088 277.649 86.4859 277.915 86.7689 278.113C87.1963 278.412 87.6794 278.436 88.2182 278.186C88.7569 277.935 89.3043 277.415 89.8603 276.626C90.2305 276.098 90.4889 275.612 90.6355 275.17C90.7785 274.729 90.8136 274.343 90.7408 274.012C90.6665 273.683 90.4858 273.418 90.1988 273.217ZM84.6293 271.428C83.8704 270.897 83.6874 269.86 84.2128 269.11C84.7443 268.351 85.7826 268.168 86.5415 268.699C87.2829 269.218 87.4746 270.262 86.9431 271.021C86.4177 271.77 85.3707 271.947 84.6293 271.428ZM86.1749 269.222C85.7039 268.893 85.0661 269.005 84.7362 269.476C84.4124 269.938 84.5248 270.576 84.9958 270.905C85.4494 271.223 86.0959 271.116 86.4197 270.654C86.7496 270.183 86.6285 269.54 86.1749 269.222Z" fill="#333333"/>
<path opacity="0.5" d="M215.989 278.241L211.546 271.9L212.506 271.228L216.276 276.61L216.314 276.584L217.137 274.531L217.779 275.447L216.921 277.589L215.989 278.241ZM207.481 274.615C207.869 274.343 208.271 274.173 208.684 274.105C209.098 274.041 209.488 274.075 209.856 274.209C210.223 274.342 210.531 274.573 210.779 274.901L209.85 275.551C209.636 275.294 209.358 275.155 209.017 275.133C208.675 275.11 208.351 275.206 208.045 275.42C207.802 275.591 207.625 275.797 207.515 276.04C207.405 276.287 207.365 276.547 207.397 276.82C207.426 277.095 207.53 277.359 207.708 277.613C207.888 277.871 208.105 278.062 208.359 278.186C208.612 278.311 208.877 278.362 209.154 278.34C209.429 278.32 209.694 278.223 209.947 278.049C210.139 277.914 210.309 277.746 210.457 277.544C210.605 277.342 210.701 277.146 210.745 276.955L211.713 276.471L213.596 279.916L210.108 282.357L209.533 281.536L212.225 279.652L211.183 277.737L211.146 277.763C211.106 277.97 211.012 278.185 210.864 278.408C210.714 278.633 210.521 278.828 210.286 278.993C209.899 279.263 209.491 279.412 209.061 279.439C208.629 279.468 208.214 279.384 207.818 279.188C207.421 278.995 207.08 278.692 206.794 278.28C206.504 277.87 206.341 277.439 206.303 276.985C206.263 276.533 206.343 276.099 206.544 275.682C206.743 275.268 207.056 274.913 207.481 274.615ZM201.785 278.573C202.276 278.233 202.784 278.069 203.311 278.083C203.837 278.096 204.363 278.283 204.89 278.643C205.416 279.004 205.921 279.529 206.404 280.218C206.886 280.906 207.206 281.557 207.363 282.173C207.519 282.79 207.512 283.348 207.345 283.847C207.175 284.347 206.848 284.767 206.362 285.107C205.877 285.446 205.371 285.609 204.843 285.593C204.317 285.58 203.791 285.394 203.266 285.036C202.74 284.681 202.236 284.16 201.755 283.472C201.27 282.781 200.948 282.126 200.79 281.508C200.632 280.892 200.636 280.334 200.802 279.833C200.97 279.334 201.298 278.914 201.785 278.573ZM202.364 279.4C201.935 279.701 201.746 280.145 201.798 280.733C201.848 281.323 202.15 282.014 202.706 282.807C203.075 283.333 203.442 283.739 203.808 284.024C204.173 284.313 204.525 284.479 204.863 284.522C205.201 284.569 205.511 284.494 205.794 284.296C206.221 283.996 206.41 283.551 206.358 282.959C206.307 282.368 206.005 281.676 205.453 280.884C205.083 280.355 204.715 279.947 204.35 279.658C203.984 279.373 203.633 279.208 203.297 279.163C202.962 279.12 202.651 279.199 202.364 279.4ZM198.777 284.019C198.018 284.55 196.98 284.367 196.455 283.617C195.923 282.858 196.106 281.821 196.865 281.29C197.606 280.771 198.653 280.948 199.185 281.706C199.71 282.456 199.519 283.5 198.777 284.019ZM197.232 281.813C196.76 282.142 196.648 282.78 196.978 283.251C197.302 283.713 197.94 283.825 198.411 283.496C198.864 283.178 198.985 282.535 198.662 282.073C198.332 281.602 197.685 281.495 197.232 281.813Z" fill="#333333"/>
<path d="M143.44 22.1254V7.00401H146.939L151.346 15.5152L151.303 7.00401H154.37V22.1254H151.087L146.464 13.2902L146.507 22.1254H143.44Z" fill="#F70000"/>
<path d="M154.758 298.234V288.808H156.185V296.807H156.24L158.496 295.335V296.697L156.144 298.234H154.758ZM148.533 288.679C149.193 288.679 149.776 288.793 150.282 289.02C150.785 289.247 151.18 289.56 151.465 289.959C151.75 290.358 151.892 290.812 151.888 291.321C151.892 291.72 151.81 292.087 151.645 292.421C151.476 292.759 151.247 293.039 150.959 293.263C150.67 293.49 150.348 293.635 149.992 293.696V293.751C150.462 293.865 150.838 294.116 151.12 294.506C151.402 294.896 151.542 295.344 151.539 295.85C151.542 296.332 151.414 296.761 151.157 297.139C150.896 297.519 150.538 297.819 150.084 298.036C149.63 298.254 149.113 298.363 148.533 298.363C147.959 298.363 147.447 298.253 146.996 298.032C146.542 297.814 146.184 297.515 145.923 297.134C145.663 296.757 145.531 296.329 145.528 295.85C145.531 295.344 145.675 294.896 145.96 294.506C146.246 294.116 146.617 293.865 147.074 293.751V293.696C146.721 293.635 146.404 293.49 146.121 293.263C145.836 293.039 145.609 292.759 145.44 292.421C145.268 292.087 145.181 291.72 145.178 291.321C145.181 290.812 145.325 290.358 145.61 289.959C145.896 289.56 146.292 289.247 146.798 289.02C147.301 288.793 147.88 288.679 148.533 288.679ZM148.533 289.844C148.143 289.844 147.806 289.908 147.521 290.037C147.235 290.169 147.014 290.351 146.858 290.585C146.701 290.821 146.621 291.097 146.618 291.413C146.621 291.741 146.707 292.031 146.876 292.283C147.042 292.535 147.267 292.733 147.553 292.877C147.838 293.021 148.165 293.093 148.533 293.093C148.904 293.093 149.234 293.021 149.523 292.877C149.811 292.733 150.038 292.535 150.204 292.283C150.37 292.031 150.451 291.741 150.448 291.413C150.451 291.097 150.376 290.821 150.222 290.585C150.066 290.351 149.843 290.169 149.555 290.037C149.266 289.908 148.926 289.844 148.533 289.844ZM148.533 294.23C148.22 294.23 147.942 294.293 147.7 294.419C147.458 294.544 147.267 294.719 147.129 294.943C146.988 295.167 146.916 295.43 146.913 295.73C146.916 296.025 146.987 296.283 147.125 296.504C147.26 296.725 147.448 296.895 147.691 297.015C147.933 297.137 148.214 297.199 148.533 297.199C148.858 297.199 149.144 297.137 149.389 297.015C149.632 296.895 149.82 296.725 149.955 296.504C150.09 296.283 150.156 296.025 150.153 295.73C150.156 295.43 150.089 295.167 149.951 294.943C149.813 294.719 149.622 294.544 149.38 294.419C149.135 294.293 148.852 294.23 148.533 294.23ZM139.548 288.628C140.306 288.628 140.956 288.82 141.499 289.204C142.039 289.59 142.455 290.147 142.746 290.875C143.035 291.605 143.179 292.484 143.179 293.512C143.176 294.54 143.03 295.414 142.742 296.135C142.45 296.86 142.035 297.412 141.495 297.792C140.951 298.173 140.302 298.363 139.548 298.363C138.793 298.363 138.144 298.173 137.601 297.792C137.058 297.412 136.642 296.86 136.353 296.135C136.062 295.411 135.916 294.537 135.916 293.512C135.916 292.481 136.062 291.6 136.353 290.87C136.642 290.143 137.058 289.587 137.601 289.204C138.141 288.82 138.79 288.628 139.548 288.628ZM139.548 290.069C138.958 290.069 138.494 290.359 138.153 290.939C137.809 291.522 137.638 292.38 137.638 293.512C137.638 294.261 137.716 294.89 137.872 295.399C138.029 295.908 138.25 296.292 138.535 296.55C138.82 296.811 139.158 296.941 139.548 296.941C140.134 296.941 140.597 296.649 140.938 296.066C141.278 295.486 141.45 294.635 141.453 293.512C141.456 292.76 141.381 292.128 141.228 291.616C141.071 291.103 140.85 290.717 140.565 290.456C140.279 290.198 139.94 290.069 139.548 290.069ZM132.334 291.983C131.207 291.983 130.299 291.076 130.299 289.962C130.299 288.834 131.207 287.927 132.334 287.927C133.436 287.927 134.356 288.834 134.356 289.962C134.356 291.076 133.436 291.983 132.334 291.983ZM132.334 288.704C131.634 288.704 131.077 289.262 131.077 289.962C131.077 290.648 131.634 291.206 132.334 291.206C133.008 291.206 133.578 290.648 133.578 289.962C133.578 289.262 133.008 288.704 132.334 288.704Z" fill="#333333"/>
<path d="M41.7715 181.963L40.538 181.963L37.3299 178.691C37.0138 178.378 36.7331 178.117 36.4876 177.908C36.2421 177.7 36.0043 177.543 35.7742 177.439C35.5441 177.335 35.2986 177.282 35.0378 177.282C34.7401 177.282 34.4854 177.35 34.2737 177.485C34.0589 177.62 33.8932 177.806 33.7766 178.042C33.66 178.278 33.6017 178.547 33.6017 178.847C33.6017 179.157 33.6662 179.429 33.795 179.662C33.9208 179.895 34.1003 180.076 34.3335 180.205C34.5667 180.331 34.8444 180.394 35.1666 180.394L35.1666 182.019C34.5683 182.019 34.0482 181.882 33.6063 181.609C33.1645 181.336 32.8223 180.96 32.5799 180.481C32.3375 179.999 32.2163 179.447 32.2163 178.824C32.2163 178.192 32.3344 177.637 32.5707 177.158C32.807 176.679 33.1307 176.308 33.5419 176.044C33.9531 175.777 34.4225 175.644 34.9503 175.644C35.3032 175.644 35.6499 175.711 35.9905 175.846C36.3311 175.981 36.7085 176.219 37.1228 176.56C37.537 176.897 38.0387 177.371 38.6279 177.982L40.2802 179.607L40.3447 179.607L40.3447 175.501L41.7715 175.501L41.7715 181.963ZM41.7715 173.179L33.8365 169.17L33.772 169.17L33.772 173.824L32.3452 173.824L32.3452 167.403L33.8042 167.403L41.7715 171.407L41.7715 173.179ZM41.951 162.247C41.951 163.005 41.7592 163.655 41.3757 164.198C40.989 164.738 40.4321 165.154 39.7049 165.446C38.9746 165.734 38.0955 165.878 37.0675 165.878C36.0396 165.875 35.1651 165.729 34.444 165.441C33.7199 165.149 33.1675 164.734 32.787 164.194C32.4066 163.651 32.2163 163.002 32.2163 162.247C32.2163 161.492 32.4066 160.843 32.787 160.3C33.1675 159.757 33.7199 159.341 34.444 159.052C35.1682 158.761 36.0427 158.615 37.0675 158.615C38.0985 158.615 38.9792 158.761 39.7095 159.052C40.4367 159.341 40.9921 159.757 41.3757 160.3C41.7592 160.84 41.951 161.489 41.951 162.247ZM40.5103 162.247C40.5103 161.658 40.2204 161.193 39.6404 160.852C39.0574 160.508 38.1998 160.337 37.0675 160.337C36.3188 160.337 35.6898 160.415 35.1804 160.571C34.6711 160.728 34.2875 160.949 34.0298 161.234C33.7689 161.519 33.6385 161.857 33.6385 162.247C33.6385 162.833 33.93 163.296 34.513 163.637C35.093 163.977 35.9445 164.149 37.0675 164.152C37.8193 164.155 38.4514 164.08 38.9638 163.927C39.4763 163.77 39.8629 163.549 40.1237 163.264C40.3815 162.979 40.5103 162.639 40.5103 162.247ZM64.596 174.341C64.596 173.214 65.5033 172.306 66.6179 172.306C67.7456 172.306 68.6528 173.214 68.6528 174.341C68.6528 175.443 67.7456 176.363 66.6179 176.363C65.5033 176.363 64.596 175.443 64.596 174.341ZM67.8752 174.341C67.8752 173.641 67.3178 173.084 66.6179 173.084C65.931 173.084 65.3737 173.641 65.3737 174.341C65.3737 175.015 65.931 175.586 66.6179 175.586C67.3178 175.586 67.8752 175.015 67.8752 174.341Z" fill="#333333"/>
<path d="M270.183 178.449C270.18 178.869 270.103 179.284 269.953 179.692C269.803 180.1 269.557 180.468 269.217 180.796C268.876 181.128 268.416 181.392 267.836 181.588C267.259 181.787 266.541 181.889 265.682 181.892C264.856 181.892 264.121 181.809 263.477 181.643C262.836 181.477 262.294 181.24 261.852 180.93C261.41 180.623 261.074 180.25 260.844 179.811C260.614 179.373 260.499 178.878 260.499 178.329C260.499 177.768 260.61 177.269 260.83 176.833C261.051 176.398 261.357 176.043 261.746 175.77C262.139 175.497 262.59 175.327 263.1 175.259L263.1 176.663C262.695 176.755 262.366 176.942 262.115 177.225C261.866 177.51 261.742 177.878 261.742 178.329C261.742 179.02 262.042 179.558 262.644 179.945C263.248 180.331 264.092 180.526 265.175 180.529L265.175 180.456C264.911 180.296 264.684 180.097 264.494 179.857C264.304 179.621 264.157 179.356 264.052 179.061C263.948 178.766 263.896 178.452 263.896 178.118C263.896 177.574 264.029 177.08 264.296 176.635C264.563 176.191 264.93 175.836 265.396 175.572C265.863 175.308 266.395 175.176 266.993 175.176C267.589 175.176 268.129 175.311 268.614 175.581C269.098 175.855 269.482 176.235 269.764 176.723C270.05 177.214 270.189 177.789 270.183 178.449ZM268.986 178.454C268.986 178.094 268.897 177.771 268.719 177.482C268.545 177.197 268.307 176.971 268.006 176.806C267.708 176.64 267.377 176.557 267.012 176.557C266.647 176.557 266.315 176.637 266.018 176.797C265.723 176.959 265.488 177.18 265.313 177.459C265.142 177.742 265.056 178.064 265.056 178.426C265.056 178.696 265.108 178.948 265.212 179.181C265.317 179.414 265.461 179.618 265.645 179.793C265.832 179.968 266.044 180.104 266.28 180.203C266.516 180.301 266.765 180.35 267.026 180.35C267.372 180.35 267.695 180.267 267.992 180.101C268.29 179.939 268.529 179.715 268.71 179.429C268.894 179.144 268.986 178.819 268.986 178.454ZM260.448 187.358C260.448 186.601 260.64 185.95 261.024 185.407C261.41 184.867 261.967 184.451 262.695 184.16C263.425 183.871 264.304 183.727 265.332 183.727C266.36 183.73 267.234 183.876 267.955 184.164C268.68 184.456 269.232 184.871 269.612 185.412C269.993 185.955 270.183 186.604 270.183 187.358C270.183 188.113 269.993 188.762 269.612 189.305C269.232 189.849 268.68 190.264 267.955 190.553C267.231 190.844 266.357 190.99 265.332 190.99C264.301 190.99 263.42 190.844 262.69 190.553C261.963 190.264 261.407 189.849 261.024 189.305C260.64 188.765 260.448 188.116 260.448 187.358ZM261.889 187.358C261.889 187.948 262.179 188.412 262.759 188.753C263.342 189.097 264.2 189.269 265.332 189.269C266.081 189.269 266.71 189.19 267.219 189.034C267.728 188.877 268.112 188.656 268.37 188.371C268.63 188.086 268.761 187.748 268.761 187.358C268.761 186.772 268.469 186.309 267.886 185.968C267.306 185.628 266.455 185.456 265.332 185.453C264.58 185.45 263.948 185.525 263.436 185.678C262.923 185.835 262.537 186.056 262.276 186.341C262.018 186.627 261.889 186.966 261.889 187.358ZM237.803 178.926C237.803 180.054 236.896 180.961 235.781 180.961C234.654 180.961 233.747 180.054 233.747 178.926C233.747 177.825 234.654 176.904 235.781 176.904C236.896 176.904 237.803 177.825 237.803 178.926ZM234.524 178.926C234.524 179.626 235.082 180.184 235.781 180.184C236.468 180.184 237.026 179.626 237.026 178.926C237.026 178.252 236.468 177.682 235.781 177.682C235.082 177.682 234.524 178.252 234.524 178.926Z" fill="#333333"/>
<g filter="url(#filter3_d_165_380)">
<ellipse cx="72.3213" cy="198.537" rx="13.3071" ry="13.299" fill="#FF5C32"/>
</g>
<g filter="url(#filter4_f_165_380)">
<ellipse cx="72.515" cy="198.536" rx="8.48572" ry="7.9023" fill="#FFBB56"/>
</g>
<path fill-rule="evenodd" clip-rule="evenodd" d="M148.501 32.8915C148.501 32.4655 148.155 32.1201 147.729 32.1201C147.303 32.1201 146.958 32.4655 146.958 32.8915V50.6226C146.958 51.0486 147.303 51.394 147.729 51.394C148.155 51.394 148.501 51.0486 148.501 50.6226V32.8915ZM148.5 304.268C148.5 303.842 148.155 303.497 147.729 303.497C147.303 303.497 146.958 303.842 146.958 304.268V321.999C146.958 322.426 147.303 322.771 147.729 322.771C148.155 322.771 148.5 322.426 148.5 321.999V304.268Z" fill="#FF5C32"/>
<path fill-rule="evenodd" clip-rule="evenodd" d="M6.17135 175.904C5.74556 175.904 5.40039 176.249 5.40039 176.675C5.40039 177.1 5.74556 177.446 6.17135 177.446H23.9152C24.3409 177.446 24.6861 177.1 24.6861 176.675C24.6861 176.249 24.3409 175.904 23.9152 175.904H6.17135ZM278.1 175.904C277.674 175.904 277.329 176.249 277.329 176.675C277.329 177.101 277.674 177.446 278.1 177.446L295.844 177.446C296.27 177.446 296.615 177.101 296.615 176.675C296.615 176.249 296.27 175.904 295.844 175.904H278.1Z" fill="#FF5C32"/>
<path fill-rule="evenodd" clip-rule="evenodd" d="M25.1904 248.38C24.8215 248.593 24.6952 249.065 24.9082 249.433C25.1212 249.802 25.5929 249.929 25.9618 249.716L41.328 240.85C41.6968 240.637 41.8231 240.165 41.6101 239.797C41.3971 239.428 40.9254 239.301 40.5565 239.514L25.1904 248.38ZM260.687 112.5C260.318 112.712 260.192 113.184 260.405 113.553C260.618 113.921 261.09 114.048 261.459 113.835L276.825 104.969C277.194 104.756 277.32 104.284 277.107 103.916C276.894 103.547 276.422 103.421 276.053 103.633L260.687 112.5Z" fill="#47515C" fill-opacity="0.5"/>
<path fill-rule="evenodd" clip-rule="evenodd" d="M77.9217 301.643C77.7087 302.012 77.835 302.484 78.204 302.697C78.573 302.909 79.0448 302.783 79.2579 302.414L88.1291 287.058C88.3422 286.689 88.2158 286.218 87.8469 286.005C87.4779 285.792 87.006 285.918 86.7929 286.287L77.9217 301.643ZM213.886 66.2904C213.673 66.6593 213.799 67.1309 214.168 67.3438C214.537 67.5567 215.009 67.4303 215.222 67.0614L224.093 51.7055C224.306 51.3366 224.18 50.865 223.811 50.6521C223.442 50.4392 222.97 50.5656 222.757 50.9345L213.886 66.2904Z" fill="#47515C" fill-opacity="0.5"/>
<path fill-rule="evenodd" clip-rule="evenodd" d="M222.757 302.414C222.97 302.783 223.442 302.91 223.811 302.697C224.18 302.484 224.307 302.012 224.094 301.643L215.222 286.288C215.009 285.919 214.537 285.792 214.168 286.005C213.799 286.218 213.673 286.69 213.886 287.058L222.757 302.414ZM86.7933 67.0617C87.0064 67.4306 87.4783 67.557 87.8472 67.3441C88.2162 67.1312 88.3426 66.6596 88.1295 66.2908L79.2583 50.9348C79.0452 50.566 78.5734 50.4395 78.2044 50.6524C77.8354 50.8653 77.7091 51.3369 77.9221 51.7058L86.7933 67.0617Z" fill="#47515C" fill-opacity="0.5"/>
<path fill-rule="evenodd" clip-rule="evenodd" d="M276.054 249.716C276.423 249.929 276.895 249.803 277.108 249.434C277.321 249.065 277.194 248.594 276.826 248.381L261.459 239.515C261.091 239.302 260.619 239.428 260.406 239.797C260.193 240.166 260.319 240.637 260.688 240.85L276.054 249.716ZM40.5574 113.835C40.9263 114.048 41.398 113.921 41.611 113.553C41.824 113.184 41.6977 112.712 41.3288 112.5L25.9627 103.633C25.5938 103.42 25.1221 103.547 24.9091 103.916C24.696 104.284 24.8224 104.756 25.1912 104.969L40.5574 113.835Z" fill="#47515C" fill-opacity="0.5"/>
<path fill-rule="evenodd" clip-rule="evenodd" d="M11.1582 213.276C10.7477 213.386 10.5041 213.808 10.6141 214.218C10.7242 214.629 11.1463 214.873 11.5568 214.763L16.764 213.368C17.1746 213.258 17.4181 212.836 17.3081 212.426C17.198 212.015 16.776 211.772 16.3654 211.882L11.1582 213.276ZM284.866 139.981C284.456 140.091 284.212 140.513 284.322 140.924C284.432 141.334 284.854 141.578 285.265 141.468L290.472 140.073C290.883 139.963 291.126 139.542 291.016 139.131C290.906 138.72 290.484 138.477 290.074 138.587L284.866 139.981Z" fill="#47515C" fill-opacity="0.2"/>
<path fill-rule="evenodd" clip-rule="evenodd" d="M48.1811 278.157C47.8804 278.458 47.8804 278.945 48.1811 279.246C48.4818 279.546 48.9694 279.546 49.2701 279.246L53.0814 275.437C53.3821 275.136 53.3821 274.649 53.0814 274.348C52.7807 274.048 52.2932 274.048 51.9925 274.348L48.1811 278.157ZM248.173 78.2734C247.873 78.574 247.873 79.0612 248.173 79.3617C248.474 79.6622 248.962 79.6622 249.262 79.3617L253.628 74.9985C253.929 74.698 253.929 74.2108 253.628 73.9102C253.328 73.6097 252.84 73.6097 252.539 73.9102L248.173 78.2734Z" fill="#47515C" fill-opacity="0.2"/>
<path fill-rule="evenodd" clip-rule="evenodd" d="M112.703 315.846C112.593 316.256 112.837 316.679 113.248 316.789C113.658 316.899 114.081 316.655 114.191 316.244L115.586 311.042C115.696 310.631 115.452 310.209 115.041 310.099C114.631 309.989 114.208 310.233 114.098 310.643L112.703 315.846ZM186.043 42.3063C185.933 42.717 186.177 43.1392 186.588 43.2492C186.998 43.3592 187.421 43.1154 187.531 42.7046L188.926 37.5022C189.036 37.0915 188.792 36.6693 188.381 36.5593C187.97 36.4493 187.548 36.6931 187.438 37.1039L186.043 42.3063Z" fill="#47515C" fill-opacity="0.2"/>
<path fill-rule="evenodd" clip-rule="evenodd" d="M187.437 316.245C187.547 316.656 187.969 316.9 188.38 316.79C188.791 316.68 189.034 316.257 188.924 315.847L187.529 310.644C187.419 310.234 186.997 309.99 186.586 310.1C186.175 310.21 185.932 310.632 186.042 311.043L187.437 316.245ZM114.098 42.7057C114.208 43.1164 114.63 43.3602 115.041 43.2502C115.451 43.1402 115.695 42.7181 115.585 42.3073L114.19 37.1049C114.08 36.6942 113.658 36.4504 113.247 36.5604C112.836 36.6704 112.593 37.0925 112.703 37.5033L114.098 42.7057Z" fill="#47515C" fill-opacity="0.2"/>
<path fill-rule="evenodd" clip-rule="evenodd" d="M252.359 279.246C252.66 279.546 253.147 279.546 253.448 279.246C253.749 278.945 253.749 278.458 253.448 278.157L249.637 274.348C249.336 274.048 248.849 274.048 248.548 274.348C248.247 274.649 248.247 275.136 248.548 275.437L252.359 279.246ZM51.9913 79.0005C52.292 79.301 52.7796 79.301 53.0803 79.0005C53.381 78.6999 53.381 78.2127 53.0803 77.9122L49.2689 74.1032C48.9682 73.8026 48.4807 73.8026 48.18 74.1032C47.8793 74.4037 47.8793 74.8909 48.18 75.1915L51.9913 79.0005Z" fill="#47515C" fill-opacity="0.2"/>
<path fill-rule="evenodd" clip-rule="evenodd" d="M290.073 214.763C290.483 214.873 290.905 214.629 291.016 214.218C291.126 213.808 290.882 213.386 290.471 213.276L285.264 211.882C284.854 211.772 284.432 212.015 284.322 212.426C284.212 212.836 284.455 213.258 284.866 213.368L290.073 214.763ZM16.3645 141.468C16.7751 141.578 17.1971 141.334 17.3072 140.923C17.4173 140.513 17.1737 140.091 16.7631 139.981L11.5559 138.587C11.1454 138.477 10.7233 138.72 10.6133 139.131C10.5032 139.541 10.7468 139.963 11.1573 140.073L16.3645 141.468Z" fill="#47515C" fill-opacity="0.2"/>
<defs>
<filter id="filter0_dii_165_380" x="22.7544" y="58.7019" width="271.935" height="271.816" filterUnits="userSpaceOnUse" color-interpolation-filters="sRGB">
<feFlood flood-opacity="0" result="BackgroundImageFix"/>
<feColorMatrix in="SourceAlpha" type="matrix" values="0 0 0 0 0 0 0 0 0 0 0 0 0 0 0 0 0 0 127 0" result="hardAlpha"/>
<feOffset dx="7.71498" dy="15.43"/>
<feGaussianBlur stdDeviation="19.2874"/>
<feComposite in2="hardAlpha" operator="out"/>
<feColorMatrix type="matrix" values="0 0 0 0 0.101961 0 0 0 0 0.45098 0 0 0 0 0.909804 0 0 0 0.2 0"/>
<feBlend mode="normal" in2="BackgroundImageFix" result="effect1_dropShadow_165_380"/>
<feBlend mode="normal" in="SourceGraphic" in2="effect1_dropShadow_165_380" result="shape"/>
<feColorMatrix in="SourceAlpha" type="matrix" values="0 0 0 0 0 0 0 0 0 0 0 0 0 0 0 0 0 0 127 0" result="hardAlpha"/>
<feOffset dx="7.71498" dy="7.71498"/>
<feGaussianBlur stdDeviation="9.64372"/>
<feComposite in2="hardAlpha" operator="arithmetic" k2="-1" k3="1"/>
<feColorMatrix type="matrix" values="0 0 0 0 0.798056 0 0 0 0 0.847597 0 0 0 0 0.920833 0 0 0 1 0"/>
<feBlend mode="normal" in2="shape" result="effect2_innerShadow_165_380"/>
<feColorMatrix in="SourceAlpha" type="matrix" values="0 0 0 0 0 0 0 0 0 0 0 0 0 0 0 0 0 0 127 0" result="hardAlpha"/>
<feOffset dx="-7.71498" dy="-7.71498"/>
<feGaussianBlur stdDeviation="5.78623"/>
<feComposite in2="hardAlpha" operator="arithmetic" k2="-1" k3="1"/>
<feColorMatrix type="matrix" values="0 0 0 0 1 0 0 0 0 1 0 0 0 0 1 0 0 0 0.7 0"/>
<feBlend mode="normal" in2="effect2_innerShadow_165_380" result="effect3_innerShadow_165_380"/>
</filter>
<filter id="filter1_f_165_380" x="54.3834" y="79.9848" width="160.229" height="159.632" filterUnits="userSpaceOnUse" color-interpolation-filters="sRGB">
<feFlood flood-opacity="0" result="BackgroundImageFix"/>
<feBlend mode="normal" in="SourceGraphic" in2="BackgroundImageFix" result="shape"/>
<feGaussianBlur stdDeviation="11.5725" result="effect1_foregroundBlur_165_380"/>
</filter>
<filter id="filter2_dii_165_380" x="62.0973" y="98.1075" width="193.249" height="193.168" filterUnits="userSpaceOnUse" color-interpolation-filters="sRGB">
<feFlood flood-opacity="0" result="BackgroundImageFix"/>
<feColorMatrix in="SourceAlpha" type="matrix" values="0 0 0 0 0 0 0 0 0 0 0 0 0 0 0 0 0 0 127 0" result="hardAlpha"/>
<feOffset dx="7.71498" dy="15.43"/>
<feGaussianBlur stdDeviation="15.43"/>
<feComposite in2="hardAlpha" operator="out"/>
<feColorMatrix type="matrix" values="0 0 0 0 0.101961 0 0 0 0 0.45098 0 0 0 0 0.909804 0 0 0 0.22 0"/>
<feBlend mode="normal" in2="BackgroundImageFix" result="effect1_dropShadow_165_380"/>
<feBlend mode="normal" in="SourceGraphic" in2="effect1_dropShadow_165_380" result="shape"/>
<feColorMatrix in="SourceAlpha" type="matrix" values="0 0 0 0 0 0 0 0 0 0 0 0 0 0 0 0 0 0 127 0" result="hardAlpha"/>
<feOffset dx="7.71498" dy="7.71498"/>
<feGaussianBlur stdDeviation="2.89312"/>
<feComposite in2="hardAlpha" operator="arithmetic" k2="-1" k3="1"/>
<feColorMatrix type="matrix" values="0 0 0 0 0.0544444 0 0 0 0 0.196 0 0 0 0 0.408333 0 0 0 0.1 0"/>
<feBlend mode="normal" in2="shape" result="effect2_innerShadow_165_380"/>
<feColorMatrix in="SourceAlpha" type="matrix" values="0 0 0 0 0 0 0 0 0 0 0 0 0 0 0 0 0 0 127 0" result="hardAlpha"/>
<feOffset dx="-11.5725" dy="-11.5725"/>
<feGaussianBlur stdDeviation="7.71498"/>
<feComposite in2="hardAlpha" operator="arithmetic" k2="-1" k3="1"/>
<feColorMatrix type="matrix" values="0 0 0 0 0.9875 0 0 0 0 0.9925 0 0 0 0 1 0 0 0 1 0"/>
<feBlend mode="normal" in2="effect2_innerShadow_165_380" result="effect3_innerShadow_165_380"/>
</filter>
<filter id="filter3_d_165_380" x="47.4417" y="175.208" width="49.7592" height="49.7429" filterUnits="userSpaceOnUse" color-interpolation-filters="sRGB">
<feFlood flood-opacity="0" result="BackgroundImageFix"/>
<feColorMatrix in="SourceAlpha" type="matrix" values="0 0 0 0 0 0 0 0 0 0 0 0 0 0 0 0 0 0 127 0" result="hardAlpha"/>
<feMorphology radius="3.85749" operator="dilate" in="SourceAlpha" result="effect1_dropShadow_165_380"/>
<feOffset dy="1.543"/>
<feGaussianBlur stdDeviation="3.85749"/>
<feComposite in2="hardAlpha" operator="out"/>
<feColorMatrix type="matrix" values="0 0 0 0 0.101961 0 0 0 0 0.45098 0 0 0 0 0.909804 0 0 0 0.07 0"/>
<feBlend mode="normal" in2="BackgroundImageFix" result="effect1_dropShadow_165_380"/>
<feBlend mode="normal" in="SourceGraphic" in2="effect1_dropShadow_165_380" result="shape"/>
</filter>
<filter id="filter4_f_165_380" x="52.4568" y="179.061" width="40.1161" height="38.9496" filterUnits="userSpaceOnUse" color-interpolation-filters="sRGB">
<feFlood flood-opacity="0" result="BackgroundImageFix"/>
<feBlend mode="normal" in="SourceGraphic" in2="BackgroundImageFix" result="shape"/>
<feGaussianBlur stdDeviation="5.78623" result="effect1_foregroundBlur_165_380"/>
</filter>
</defs>
</svg>
