<svg width="303" height="329" viewBox="0 0 303 329" fill="none" xmlns="http://www.w3.org/2000/svg">
<g filter="url(#filter0_ii_165_314)">
<ellipse cx="151.184" cy="177.122" rx="151.003" ry="150.91" fill="#272727"/>
</g>
<g filter="url(#filter1_i_165_314)">
<ellipse cx="151.185" cy="179.05" rx="97.3901" ry="97.3304" fill="#272727"/>
</g>
<g filter="url(#filter2_di_165_314)">
<ellipse cx="151.185" cy="179.189" rx="64.6053" ry="64.5657" fill="#47515C"/>
</g>
<path d="M150.518 209.697V222.592H148.729L142.175 213.135H142.055V222.592H140.109V209.697H141.91L148.471 219.167H148.591V209.697H150.518ZM153.356 222.592V209.697H161.441V211.371H155.302V215.301H161.019V216.969H155.302V220.917H161.516V222.592H153.356Z" fill="white"/>
<path d="M106.679 193.301V189.402L117.083 180.489C118.032 179.671 118.835 178.934 119.492 178.276C120.149 177.619 120.645 176.977 120.981 176.349C121.332 175.707 121.507 175.02 121.507 174.29C121.507 173.064 121.025 172.1 120.061 171.399C119.112 170.684 117.937 170.326 116.535 170.326C115.046 170.326 113.848 170.713 112.943 171.487C112.038 172.261 111.585 173.298 111.585 174.597H106.395C106.395 171.998 107.351 169.925 109.264 168.377C111.177 166.829 113.629 166.055 116.623 166.055C118.638 166.055 120.397 166.413 121.901 167.129C123.405 167.844 124.573 168.815 125.405 170.041C126.252 171.268 126.675 172.655 126.675 174.203C126.675 175.429 126.427 176.568 125.931 177.619C125.434 178.671 124.661 179.737 123.609 180.817C122.558 181.898 121.207 183.095 119.557 184.409L114.476 188.702V188.899H127.311V193.301H106.679ZM143.386 193.651C141.912 193.651 140.488 193.418 139.116 192.95C137.758 192.483 136.538 191.731 135.458 190.695C134.378 189.658 133.523 188.307 132.896 186.643C132.268 184.964 131.954 182.92 131.954 180.51C131.954 177.532 132.421 174.955 133.355 172.779C134.305 170.604 135.648 168.925 137.385 167.742C139.137 166.545 141.225 165.946 143.649 165.946C146.555 165.946 148.898 166.727 150.68 168.289C152.475 169.852 153.498 171.728 153.746 173.918H148.446C148.212 172.867 147.664 172.056 146.803 171.487C145.942 170.918 144.89 170.633 143.649 170.633C141.561 170.633 139.97 171.436 138.875 173.042C137.794 174.634 137.254 176.824 137.254 179.612H137.429C138.115 178.386 139.137 177.437 140.495 176.765C141.853 176.079 143.343 175.736 144.963 175.736C146.686 175.736 148.234 176.108 149.606 176.853C150.979 177.598 152.067 178.612 152.87 179.897C153.673 181.182 154.074 182.657 154.074 184.321C154.074 186.132 153.622 187.745 152.716 189.162C151.826 190.563 150.577 191.666 148.971 192.469C147.365 193.257 145.504 193.651 143.386 193.651ZM143.364 189.446C144.387 189.446 145.314 189.227 146.146 188.789C146.978 188.351 147.635 187.76 148.117 187.015C148.614 186.271 148.862 185.431 148.862 184.497C148.862 183.591 148.621 182.774 148.139 182.044C147.657 181.299 147 180.715 146.168 180.291C145.35 179.853 144.423 179.634 143.386 179.634C142.335 179.634 141.379 179.853 140.517 180.291C139.67 180.715 139.006 181.313 138.524 182.087C138.057 182.847 137.838 183.73 137.867 184.737C137.896 185.935 138.415 187.022 139.422 188.001C140.43 188.964 141.744 189.446 143.364 189.446ZM170.123 193.87C166.516 193.87 163.684 192.637 161.625 190.169C159.581 187.687 158.559 184.263 158.559 179.897C158.559 175.531 159.581 172.137 161.625 169.713C163.684 167.275 166.516 166.055 170.123 166.055C173.7 166.055 176.518 167.267 178.577 169.691C180.65 172.1 181.687 175.502 181.687 179.897C181.687 184.307 180.65 187.738 178.577 190.191C176.518 192.644 173.7 193.87 170.123 193.87ZM170.123 189.359C171.962 189.359 173.43 188.57 174.525 186.993C175.635 185.402 176.189 183.036 176.189 179.897C176.189 176.758 175.635 174.4 174.525 172.823C173.43 171.246 171.962 170.458 170.123 170.458C168.312 170.458 166.852 171.246 165.742 172.823C164.633 174.4 164.078 176.758 164.078 179.897C164.078 183.007 164.618 185.365 165.699 186.971C166.794 188.563 168.268 189.359 170.123 189.359Z" fill="white"/>
<path d="M191.123 155.652C194.343 155.652 196.933 158.242 196.933 161.425C196.933 164.644 194.343 167.235 191.123 167.235C187.978 167.235 185.35 164.644 185.35 161.425C185.35 158.242 187.978 155.652 191.123 155.652ZM191.123 165.014C193.121 165.014 194.713 163.423 194.713 161.425C194.713 159.464 193.121 157.872 191.123 157.872C189.199 157.872 187.571 159.464 187.571 161.425C187.571 163.423 189.199 165.014 191.123 165.014Z" fill="white"/>
<g filter="url(#filter3_d_165_314)">
<ellipse cx="74.4299" cy="203.861" rx="13.3064" ry="13.2983" fill="#FF5C32"/>
</g>
<g filter="url(#filter4_f_165_314)">
<ellipse cx="74.6238" cy="203.86" rx="9.25663" ry="8.67277" fill="#FFBB56"/>
</g>
<path d="M148.525 67.4534C147.768 67.4534 147.118 67.2617 146.575 66.8784C146.035 66.4921 145.62 65.9356 145.328 65.2089C145.04 64.4791 144.896 63.6007 144.896 62.5735C144.899 61.5463 145.045 60.6724 145.333 59.9519C145.624 59.2282 146.04 58.6763 146.579 58.2961C147.122 57.9159 147.771 57.7258 148.525 57.7258C149.279 57.7258 149.928 57.9159 150.47 58.2961C151.013 58.6763 151.429 59.2282 151.717 59.9519C152.008 60.6755 152.154 61.5494 152.154 62.5735C152.154 63.6037 152.008 64.4837 151.717 65.2135C151.429 65.9402 151.013 66.4952 150.47 66.8784C149.931 67.2617 149.282 67.4534 148.525 67.4534ZM148.525 66.0138C149.114 66.0138 149.578 65.724 149.919 65.1445C150.262 64.5619 150.434 63.7049 150.434 62.5735C150.434 61.8253 150.356 61.1967 150.199 60.6878C150.043 60.1788 149.822 59.7955 149.537 59.5379C149.252 59.2773 148.914 59.147 148.525 59.147C147.939 59.147 147.476 59.4383 147.136 60.0209C146.796 60.6004 146.624 61.4512 146.621 62.5735C146.618 63.3247 146.693 63.9563 146.846 64.4684C147.003 64.9805 147.223 65.3668 147.509 65.6274C147.794 65.885 148.133 66.0138 148.525 66.0138ZM155.455 64.1008C156.582 64.1008 157.488 65.0074 157.488 66.1213C157.488 67.2481 156.582 68.1547 155.455 68.1547C154.354 68.1547 153.434 67.2481 153.434 66.1213C153.434 65.0074 154.354 64.1008 155.455 64.1008ZM155.455 67.3776C156.154 67.3776 156.711 66.8207 156.711 66.1213C156.711 65.4348 156.154 64.8779 155.455 64.8779C154.781 64.8779 154.211 65.4348 154.211 66.1213C154.211 66.8207 154.781 67.3776 155.455 67.3776Z" fill="white"/>
<path opacity="0.5" d="M91.0827 81.8666C90.6333 82.1259 90.1872 82.2801 89.7443 82.3291C89.3036 82.3769 88.9014 82.3226 88.5376 82.1661C88.1747 82.0062 87.8804 81.7486 87.6547 81.3932L88.6822 80.8003C88.81 80.9912 88.976 81.1251 89.1804 81.202C89.3858 81.2755 89.6093 81.2948 89.851 81.26C90.0927 81.2252 90.3335 81.1386 90.5735 81.0002C90.8375 80.8478 91.0444 80.6674 91.1944 80.4587C91.3465 80.2488 91.4332 80.0287 91.4543 79.7984C91.4742 79.5659 91.4217 79.3417 91.297 79.1258C91.1672 78.9012 90.9954 78.7372 90.7815 78.6338C90.5685 78.527 90.3235 78.488 90.0465 78.517C89.7716 78.5448 89.4793 78.648 89.1695 78.8267L88.6034 79.1534L88.1272 78.329L88.6933 78.0024C88.942 77.8589 89.1343 77.6883 89.2703 77.4906C89.4084 77.2917 89.485 77.0818 89.4999 76.8609C89.5135 76.6378 89.458 76.4183 89.3333 76.2024C89.2136 75.9952 89.0627 75.8424 88.8807 75.7438C88.6997 75.6419 88.4988 75.5963 88.2783 75.6073C88.0599 75.617 87.8362 75.6879 87.6071 75.8201C87.389 75.946 87.2083 76.104 87.0651 76.2942C86.9228 76.481 86.8357 76.6825 86.8035 76.8988C86.7701 77.1129 86.8083 77.3249 86.918 77.535L85.9396 78.0995C85.7413 77.7312 85.6643 77.3511 85.7084 76.9592C85.7547 76.5661 85.9011 76.1952 86.1476 75.8465C86.3942 75.4978 86.7225 75.2052 87.1326 74.9685C87.5624 74.7205 87.9818 74.5905 88.3907 74.5784C88.8006 74.5629 89.1707 74.6446 89.5008 74.8234C89.8332 75.0009 90.0934 75.255 90.2815 75.5855C90.5004 75.9594 90.5796 76.3382 90.5192 76.722C90.4609 77.1046 90.2831 77.4413 89.9857 77.7321L90.016 77.7844C90.5001 77.5952 90.9468 77.573 91.3562 77.7177C91.7677 77.8612 92.0946 78.1451 92.3369 78.5694C92.552 78.9368 92.6403 79.3263 92.6019 79.7382C92.5657 80.1487 92.4183 80.5406 92.1597 80.9137C91.8998 81.2846 91.5409 81.6022 91.0827 81.8666ZM97.2265 78.3216C96.7771 78.5809 96.331 78.7351 95.8881 78.7842C95.4474 78.832 95.0452 78.7777 94.6814 78.6212C94.3185 78.4613 94.0242 78.2036 93.7985 77.8482L94.826 77.2554C94.9538 77.4463 95.1198 77.5802 95.3242 77.6571C95.5295 77.7305 95.7531 77.7498 95.9948 77.7151C96.2365 77.6803 96.4773 77.5937 96.7173 77.4552C96.9812 77.3029 97.1882 77.1224 97.3382 76.9138C97.4903 76.7038 97.577 76.4837 97.5981 76.2534C97.618 76.021 97.5655 75.7968 97.4408 75.5809C97.311 75.3563 97.1392 75.1922 96.9253 75.0888C96.7123 74.982 96.4673 74.9431 96.1903 74.9721C95.9154 74.9998 95.6231 75.1031 95.3133 75.2818L94.7472 75.6084L94.271 74.7841L94.8371 74.4574C95.0858 74.3139 95.2781 74.1433 95.4141 73.9457C95.5522 73.7467 95.6287 73.5368 95.6437 73.3159C95.6573 73.0929 95.6018 72.8734 95.4771 72.6575C95.3574 72.4503 95.2065 72.2974 95.0245 72.1989C94.8434 72.0969 94.6426 72.0514 94.4221 72.0624C94.2037 72.072 93.98 72.143 93.7509 72.2751C93.5327 72.401 93.3521 72.5591 93.2089 72.7493C93.0666 72.936 92.9794 73.1375 92.9473 73.3538C92.9139 73.5679 92.9521 73.78 93.0618 73.99L92.0833 74.5546C91.8851 74.1863 91.8081 73.8062 91.8522 73.4143C91.8985 73.0212 92.0449 72.6503 92.2914 72.3016C92.5379 71.9529 92.8663 71.6602 93.2764 71.4236C93.7062 71.1756 94.1255 71.0456 94.5345 71.0335C94.9444 71.018 95.3145 71.0996 95.6446 71.2784C95.977 71.456 96.2372 71.71 96.4253 72.0406C96.6441 72.4144 96.7234 72.7933 96.663 73.1771C96.6047 73.5596 96.4269 73.8963 96.1295 74.1871L96.1597 74.2395C96.6438 74.0503 97.0906 74.0281 97.5 74.1728C97.9115 74.3162 98.2384 74.6001 98.4807 75.0245C98.6958 75.3918 98.7841 75.7814 98.7457 76.1932C98.7095 76.6038 98.5621 76.9956 98.3035 77.3687C98.0436 77.7396 97.6846 78.0573 97.2265 78.3216ZM103.382 74.7963C102.863 75.0924 102.343 75.211 101.82 75.1521C101.297 75.0931 100.79 74.8612 100.297 74.4564C99.8041 74.0515 99.3473 73.4849 98.9265 72.7565C98.507 72.0302 98.2456 71.3537 98.1424 70.727C98.0414 70.099 98.096 69.5441 98.3063 69.0622C98.5188 68.579 98.8813 68.1895 99.394 67.8937C99.9067 67.5979 100.425 67.4806 100.949 67.5417C101.472 67.6007 101.979 67.8315 102.47 68.2342C102.963 68.6334 103.419 69.1961 103.838 69.9224C104.26 70.653 104.524 71.3327 104.628 71.9616C104.731 72.5884 104.678 73.1438 104.469 73.6278C104.259 74.1097 103.896 74.4992 103.382 74.7963ZM102.877 73.9228C103.331 73.661 103.557 73.2351 103.557 72.6451C103.559 72.0539 103.318 71.3395 102.834 70.502C102.512 69.9459 102.182 69.5099 101.842 69.194C101.504 68.8747 101.168 68.6788 100.835 68.6062C100.503 68.5302 100.188 68.5784 99.8892 68.7508C99.4376 69.0114 99.2116 69.4384 99.2112 70.0318C99.2108 70.6253 99.4508 71.3403 99.9311 72.1768C100.254 72.7351 100.584 73.1739 100.923 73.4932C101.262 73.8091 101.598 74.004 101.928 74.0778C102.258 74.1495 102.574 74.0978 102.877 73.9228ZM103.447 95.8458C104.249 95.3832 105.267 95.6558 105.724 96.4481C106.187 97.2495 105.915 98.2666 105.113 98.7292C104.33 99.1811 103.303 98.9138 102.84 98.1123C102.382 97.3201 102.664 96.2977 103.447 95.8458ZM104.794 98.1764C105.291 97.8893 105.459 97.2646 105.171 96.7671C104.889 96.2789 104.264 96.1114 103.767 96.3985C103.288 96.675 103.111 97.305 103.393 97.7933C103.68 98.2907 104.315 98.4529 104.794 98.1764Z" fill="white"/>
<path opacity="0.5" d="M206.321 77.9318C205.872 77.6725 205.515 77.3635 205.251 77.0047C204.989 76.6472 204.835 76.2719 204.789 75.8788C204.746 75.4848 204.822 75.1012 205.017 74.7282L206.045 75.3211C205.943 75.5271 205.91 75.7378 205.946 75.9531C205.985 76.1676 206.08 76.3707 206.231 76.5625C206.382 76.7543 206.577 76.9194 206.817 77.0579C207.081 77.2102 207.341 77.2991 207.597 77.3245C207.855 77.3513 208.089 77.3162 208.299 77.2193C208.511 77.1203 208.679 76.9628 208.803 76.7469C208.933 76.5223 208.989 76.2916 208.972 76.0547C208.958 75.817 208.869 75.5855 208.706 75.3602C208.544 75.1362 208.309 74.9348 207.999 74.7561L207.433 74.4294L207.909 73.605L208.475 73.9317C208.724 74.0752 208.968 74.1564 209.207 74.1752C209.449 74.1953 209.669 74.1566 209.868 74.059C210.068 73.9593 210.23 73.8015 210.355 73.5856C210.475 73.3784 210.532 73.1714 210.526 72.9647C210.524 72.7569 210.463 72.5604 210.343 72.375C210.225 72.1908 210.052 72.0326 209.823 71.9005C209.605 71.7746 209.378 71.6972 209.141 71.6684C208.908 71.6387 208.69 71.664 208.487 71.7443C208.284 71.8224 208.12 71.9615 207.992 72.1615L207.014 71.5969C207.234 71.2412 207.525 70.9845 207.887 70.8267C208.25 70.6703 208.645 70.6115 209.07 70.6505C209.496 70.6895 209.914 70.8274 210.324 71.064C210.754 71.312 211.076 71.6099 211.291 71.9579C211.509 72.3049 211.624 72.666 211.634 73.0411C211.646 73.4175 211.556 73.7698 211.364 74.0978C211.149 74.4742 210.86 74.7322 210.498 74.8718C210.137 75.0127 209.756 75.0271 209.356 74.9151L209.325 74.9675C209.731 75.2919 209.974 75.6674 210.053 76.0941C210.135 76.522 210.052 76.9469 209.806 77.3687C209.595 77.7386 209.301 78.0098 208.925 78.1825C208.551 78.3564 208.138 78.4247 207.686 78.3875C207.234 78.3481 206.779 78.1962 206.321 77.9318ZM212.526 81.5379C212.01 81.2374 211.647 80.8462 211.437 80.3643C211.226 79.8824 211.173 79.327 211.278 78.6981C211.382 78.0692 211.645 77.3905 212.066 76.6621C212.485 75.9359 212.941 75.3714 213.432 74.9688C213.926 74.5674 214.434 74.3372 214.957 74.2782C215.482 74.2205 216.001 74.3396 216.513 74.6354C217.026 74.9312 217.387 75.3211 217.596 75.8052C217.806 76.2871 217.86 76.8414 217.757 77.4682C217.657 78.094 217.397 78.77 216.978 79.4962C216.556 80.2268 216.098 80.7946 215.605 81.1994C215.114 81.6021 214.606 81.834 214.082 81.8951C213.559 81.9541 213.041 81.835 212.526 81.5379ZM213.03 80.6645C213.484 80.9263 213.966 80.9095 214.477 80.6141C214.991 80.3199 215.489 79.754 215.973 78.9166C216.294 78.3604 216.507 77.8565 216.611 77.4047C216.718 76.9519 216.72 76.5634 216.617 76.239C216.517 75.9138 216.317 75.6649 216.018 75.4925C215.567 75.2319 215.084 75.2498 214.569 75.5462C214.055 75.8426 213.555 76.4078 213.07 77.2418C212.748 77.8001 212.533 78.3056 212.426 78.7584C212.322 79.2102 212.32 79.5976 212.422 79.9207C212.524 80.2416 212.727 80.4895 213.03 80.6645ZM218.919 82.0694C219.721 82.532 219.993 83.549 219.536 84.3413C219.073 85.1427 218.055 85.4154 217.254 84.9528C216.47 84.5008 216.189 83.4785 216.652 82.677C217.109 81.8848 218.136 81.6174 218.919 82.0694ZM217.573 84.4001C218.07 84.6872 218.696 84.5197 218.983 84.0222C219.265 83.534 219.098 82.9092 218.6 82.6221C218.121 82.3456 217.486 82.5078 217.204 82.9961C216.917 83.4935 217.094 84.1236 217.573 84.4001Z" fill="white"/>
<path opacity="0.5" d="M247.267 117.954C247.099 117.653 246.983 117.327 246.92 116.977C246.859 116.628 246.882 116.266 246.99 115.889C247.099 115.513 247.318 115.135 247.648 114.755C247.98 114.378 248.455 114.011 249.072 113.655C249.657 113.317 250.209 113.075 250.73 112.929C251.252 112.785 251.732 112.733 252.171 112.774C252.613 112.813 253.005 112.941 253.349 113.158C253.693 113.376 253.977 113.679 254.201 114.067C254.432 114.466 254.558 114.866 254.58 115.266C254.602 115.666 254.53 116.042 254.363 116.394C254.198 116.748 253.954 117.053 253.631 117.309L253.055 116.312C253.295 116.083 253.445 115.817 253.506 115.515C253.567 115.212 253.504 114.899 253.318 114.577C253.034 114.086 252.599 113.826 252.013 113.798C251.428 113.772 250.754 113.978 249.991 114.415L250.02 114.464C250.276 114.47 250.52 114.519 250.75 114.61C250.983 114.702 251.197 114.832 251.389 115C251.586 115.169 251.751 115.37 251.886 115.603C252.111 115.991 252.218 116.397 252.21 116.821C252.205 117.245 252.091 117.647 251.868 118.026C251.645 118.405 251.319 118.718 250.892 118.964C250.464 119.211 250.021 119.337 249.562 119.343C249.104 119.352 248.673 119.24 248.268 119.008C247.866 118.775 247.532 118.424 247.267 117.954ZM248.116 117.46C248.265 117.717 248.461 117.911 248.705 118.041C248.948 118.171 249.211 118.233 249.493 118.227C249.775 118.222 250.048 118.143 250.312 117.99C250.569 117.842 250.77 117.649 250.915 117.411C251.061 117.176 251.138 116.922 251.147 116.649C251.156 116.379 251.088 116.116 250.94 115.861C250.828 115.667 250.687 115.509 250.517 115.386C250.348 115.265 250.163 115.18 249.96 115.131C249.757 115.082 249.55 115.071 249.338 115.097C249.13 115.124 248.932 115.192 248.744 115.3C248.494 115.445 248.295 115.637 248.148 115.876C248.002 116.117 247.922 116.377 247.908 116.655C247.898 116.934 247.967 117.203 248.116 117.46ZM250.724 123.984C250.428 123.466 250.309 122.946 250.368 122.423C250.427 121.901 250.659 121.393 251.064 120.901C251.468 120.408 252.035 119.952 252.764 119.532C253.49 119.112 254.167 118.851 254.794 118.748C255.422 118.648 255.978 118.702 256.46 118.913C256.943 119.125 257.333 119.488 257.629 120C257.925 120.513 258.043 121.031 257.982 121.554C257.923 122.077 257.692 122.584 257.289 123.075C256.89 123.567 256.327 124.023 255.601 124.442C254.87 124.864 254.19 125.126 253.561 125.231C252.934 125.334 252.378 125.281 251.894 125.072C251.411 124.861 251.022 124.499 250.724 123.984ZM251.598 123.48C251.86 123.934 252.286 124.16 252.877 124.16C253.468 124.162 254.183 123.921 255.02 123.438C255.577 123.117 256.013 122.786 256.329 122.447C256.648 122.109 256.844 121.773 256.917 121.441C256.993 121.109 256.944 120.794 256.772 120.495C256.511 120.043 256.084 119.817 255.49 119.817C254.896 119.816 254.181 120.056 253.344 120.536C252.786 120.858 252.347 121.188 252.027 121.527C251.711 121.866 251.517 122.201 251.443 122.531C251.371 122.861 251.423 123.177 251.598 123.48ZM255.886 127.452C256.349 128.254 256.077 129.271 255.284 129.728C254.483 130.191 253.465 129.918 253.002 129.116C252.55 128.333 252.817 127.307 253.619 126.845C254.411 126.387 255.434 126.669 255.886 127.452ZM253.555 128.797C253.842 129.295 254.467 129.462 254.965 129.175C255.453 128.893 255.621 128.269 255.334 127.771C255.057 127.292 254.426 127.115 253.938 127.397C253.44 127.684 253.278 128.318 253.555 128.797Z" fill="white"/>
<path opacity="0.5" d="M50.9877 123.301C50.7281 123.75 50.4189 124.107 50.0599 124.371C49.7021 124.632 49.3266 124.786 48.9333 124.833C48.5391 124.876 48.1554 124.8 47.7822 124.605L48.3756 123.578C48.5817 123.679 48.7925 123.712 49.008 123.676C49.2225 123.637 49.4257 123.542 49.6177 123.391C49.8096 123.24 49.9749 123.045 50.1134 122.805C50.2659 122.541 50.3549 122.281 50.3804 122.026C50.4072 121.768 50.3722 121.534 50.2754 121.324C50.1764 121.113 50.0189 120.945 49.8029 120.82C49.5782 120.691 49.3474 120.634 49.1104 120.652C48.8726 120.666 48.6409 120.755 48.4155 120.918C48.1913 121.08 47.9898 121.315 47.8109 121.625L47.4839 122.191L46.6593 121.715L46.9863 121.149C47.1299 120.9 47.2112 120.657 47.2301 120.417C47.2502 120.176 47.2116 119.956 47.114 119.757C47.0143 119.557 46.8565 119.395 46.6405 119.27C46.4333 119.151 46.2262 119.094 46.0193 119.099C45.8115 119.102 45.6148 119.163 45.4293 119.282C45.245 119.4 45.0867 119.573 44.9545 119.802C44.8285 120.02 44.751 120.248 44.7221 120.484C44.6923 120.717 44.7176 120.935 44.7979 121.138C44.876 121.34 45.0151 121.505 45.2151 121.632L44.65 122.61C44.2942 122.39 44.0374 122.1 43.8797 121.738C43.7233 121.375 43.6646 120.98 43.7037 120.555C43.7429 120.13 43.8809 119.712 44.1177 119.302C44.366 118.872 44.6641 118.55 45.0123 118.335C45.3595 118.117 45.7208 118.002 46.0961 117.992C46.4727 117.98 46.8251 118.07 47.1532 118.262C47.5297 118.476 47.7878 118.765 47.9273 119.127C48.0682 119.488 48.0825 119.868 47.9704 120.269L48.0227 120.299C48.3474 119.893 48.7232 119.65 49.1501 119.571C49.5782 119.49 50.0033 119.572 50.4252 119.818C50.7952 120.029 51.0665 120.322 51.2391 120.698C51.413 121.072 51.4813 121.485 51.4439 121.937C51.4043 122.388 51.2523 122.843 50.9877 123.301ZM54.5555 117.17C54.2547 117.686 53.8632 118.049 53.3811 118.259C52.8989 118.469 52.3432 118.522 51.714 118.418C51.0849 118.314 50.406 118.052 49.6773 117.631C48.9509 117.212 48.3863 116.757 47.9836 116.266C47.5821 115.772 47.3519 115.265 47.2931 114.742C47.2355 114.217 47.3548 113.699 47.6508 113.186C47.9469 112.674 48.3371 112.313 48.8215 112.104C49.3037 111.894 49.8583 111.84 50.4852 111.943C51.1113 112.042 51.7876 112.302 52.514 112.721C53.2449 113.143 53.8127 113.6 54.2176 114.092C54.6203 114.583 54.8522 115.091 54.9132 115.615C54.9721 116.137 54.8528 116.656 54.5555 117.17ZM53.6818 116.666C53.9439 116.213 53.9272 115.73 53.6317 115.22C53.3375 114.707 52.7716 114.209 51.9338 113.725C51.3775 113.404 50.8734 113.192 50.4214 113.088C49.9685 112.981 49.5798 112.979 49.2553 113.083C48.9298 113.183 48.6808 113.382 48.5082 113.681C48.2474 114.132 48.2652 114.615 48.5615 115.129C48.8579 115.643 49.4232 116.143 50.2575 116.627C50.816 116.949 51.3217 117.164 51.7746 117.271C52.2266 117.375 52.6142 117.376 52.9375 117.275C53.2586 117.172 53.5067 116.969 53.6818 116.666ZM58.0413 111.136C57.7406 111.652 57.3491 112.015 56.8669 112.225C56.3847 112.436 55.829 112.489 55.1999 112.384C54.5707 112.28 53.8918 112.018 53.1632 111.597C52.4367 111.178 51.8721 110.723 51.4694 110.232C51.0679 109.738 50.8378 109.231 50.7789 108.708C50.7213 108.183 50.8406 107.665 51.1367 107.152C51.4328 106.64 51.823 106.279 52.3073 106.07C52.7895 105.86 53.3441 105.806 53.9711 105.909C54.5971 106.009 55.2734 106.268 55.9999 106.687C56.7307 107.109 57.2986 107.566 57.7035 108.058C58.1062 108.549 58.3381 109.057 58.3991 109.581C58.4579 110.103 58.3387 110.622 58.0413 111.136ZM57.1676 110.632C57.4297 110.179 57.413 109.696 57.1175 109.186C56.8234 108.673 56.2574 108.175 55.4197 107.691C54.8634 107.37 54.3592 107.158 53.9072 107.054C53.4543 106.947 53.0656 106.945 52.7411 107.049C52.4157 107.149 52.1666 107.348 51.994 107.647C51.7332 108.098 51.751 108.581 52.0474 109.095C52.3438 109.61 52.9091 110.109 53.7434 110.593C54.3018 110.915 54.8075 111.13 55.2605 111.237C55.7124 111.341 56.1001 111.342 56.4233 111.241C56.7444 111.138 56.9925 110.935 57.1676 110.632ZM68.6542 129.279C69.1172 128.477 70.1348 128.205 70.9273 128.662C71.729 129.125 72.0015 130.142 71.5385 130.943C71.0861 131.726 70.0632 132.008 69.2615 131.545C68.469 131.088 68.2018 130.062 68.6542 129.279ZM70.9856 130.624C71.273 130.127 71.1056 129.502 70.608 129.215C70.1196 128.933 69.4945 129.1 69.2071 129.598C68.9304 130.077 69.0924 130.711 69.5808 130.993C70.0784 131.28 70.7088 131.103 70.9856 130.624Z" fill="white"/>
<path opacity="0.5" d="M57.5792 242.297L56.8462 242.72L53.187 241.808C52.7919 241.714 52.453 241.643 52.1703 241.597C51.8842 241.55 51.6312 241.537 51.4113 241.559C51.1914 241.582 50.9833 241.649 50.787 241.763C50.5644 241.891 50.4027 242.054 50.3017 242.252C50.1986 242.451 50.1557 242.666 50.173 242.898C50.1881 243.13 50.2612 243.36 50.3922 243.587C50.5308 243.827 50.7009 244.008 50.9023 244.13C51.1038 244.252 51.3217 244.31 51.556 244.302C51.7904 244.295 52.0275 244.222 52.2675 244.084L52.825 245.049C52.4171 245.284 52.0062 245.396 51.5924 245.385C51.1786 245.373 50.7933 245.253 50.4363 245.022C50.0772 244.794 49.7773 244.471 49.5366 244.054C49.2935 243.633 49.1633 243.214 49.146 242.797C49.1254 242.378 49.2067 241.995 49.3901 241.648C49.5713 241.302 49.8419 241.025 50.2019 240.818C50.4506 240.674 50.7209 240.581 51.0129 240.537C51.3036 240.492 51.6612 240.499 52.0859 240.559C52.5083 240.621 53.0446 240.736 53.6947 240.905L55.8579 241.432L55.907 241.404L54.1645 238.387L55.0317 237.887L57.5792 242.297ZM53.0528 237.483L52.2347 237.955L45.9874 237.699L45.6151 237.055L46.8194 236.36L47.0556 236.769L51.5308 236.948L51.5831 236.917L49.2907 232.949L50.1481 232.455L53.0528 237.483ZM52.5267 233.551L50.9691 234.45L50.5922 234.658L45.8211 237.411L45.2674 236.453L51.9692 232.586L52.5267 233.551ZM49.4701 228.003C49.7665 228.521 49.8853 229.042 49.8264 229.564C49.7676 230.087 49.5357 230.594 49.1308 231.086C48.7259 231.579 48.1591 232.035 47.4305 232.456C46.704 232.875 46.0273 233.136 45.4003 233.239C44.7721 233.34 44.2169 233.285 43.7347 233.075C43.2513 232.862 42.8615 232.5 42.5654 231.987C42.2693 231.475 42.1518 230.957 42.2128 230.433C42.2717 229.91 42.5025 229.403 42.9052 228.912C43.3045 228.42 43.8673 227.965 44.5938 227.545C45.3246 227.124 46.0046 226.861 46.6338 226.757C47.2608 226.654 47.8164 226.707 48.3008 226.916C48.783 227.126 49.1727 227.488 49.4701 228.003ZM48.5964 228.507C48.3343 228.054 47.9081 227.827 47.3179 227.827C46.7263 227.826 46.0117 228.066 45.174 228.55C44.6177 228.871 44.1816 229.201 43.8657 229.54C43.5463 229.879 43.3503 230.214 43.2778 230.547C43.2018 230.878 43.2502 231.194 43.4228 231.492C43.6836 231.944 44.1108 232.17 44.7045 232.17C45.2983 232.171 46.0135 231.931 46.8503 231.451C47.4088 231.129 47.8477 230.799 48.1671 230.46C48.483 230.121 48.6779 229.786 48.7516 229.456C48.8233 229.127 48.7715 228.81 48.5964 228.507ZM44.308 224.535C43.845 223.734 44.1175 222.717 44.91 222.259C45.7117 221.797 46.7293 222.069 47.1923 222.871C47.6446 223.654 47.3774 224.68 46.5757 225.143C45.7832 225.6 44.7603 225.318 44.308 224.535ZM46.6394 223.19C46.352 222.692 45.7269 222.525 45.2293 222.812C44.7409 223.094 44.5735 223.719 44.8609 224.216C45.1376 224.695 45.768 224.872 46.2564 224.59C46.754 224.303 46.9161 223.669 46.6394 223.19Z" fill="white"/>
<path opacity="0.5" d="M256.695 235.469L249.993 231.602L250.579 230.588L256.266 233.869L256.289 233.83L256.168 231.623L257.136 232.182L257.264 234.484L256.695 235.469ZM248.828 233.619L249.561 234.042L250.601 237.664C250.716 238.054 250.825 238.382 250.926 238.65C251.028 238.921 251.144 239.147 251.273 239.326C251.402 239.505 251.565 239.651 251.761 239.765C251.984 239.893 252.206 239.951 252.428 239.94C252.652 239.93 252.86 239.859 253.052 239.728C253.246 239.599 253.408 239.421 253.539 239.194C253.678 238.954 253.75 238.717 253.755 238.481C253.76 238.246 253.701 238.028 253.577 237.829C253.454 237.63 253.272 237.461 253.032 237.323L253.59 236.358C253.998 236.593 254.3 236.893 254.497 237.256C254.694 237.62 254.782 238.014 254.761 238.438C254.743 238.863 254.613 239.284 254.372 239.701C254.129 240.122 253.831 240.444 253.478 240.668C253.125 240.895 252.753 241.016 252.36 241.031C251.97 241.047 251.595 240.951 251.235 240.743C250.986 240.6 250.77 240.413 250.586 240.182C250.402 239.953 250.229 239.64 250.069 239.242C249.911 238.845 249.743 238.324 249.564 237.677L248.939 235.541L248.89 235.513L247.148 238.529L246.28 238.029L248.828 233.619ZM243.987 241.741C244.288 241.225 244.68 240.862 245.162 240.652C245.644 240.442 246.2 240.389 246.829 240.493C247.458 240.597 248.137 240.86 248.866 241.28C249.592 241.699 250.157 242.154 250.559 242.646C250.961 243.139 251.191 243.647 251.25 244.169C251.307 244.694 251.188 245.212 250.892 245.725C250.596 246.238 250.206 246.598 249.721 246.807C249.239 247.018 248.685 247.071 248.058 246.968C247.432 246.869 246.755 246.609 246.029 246.19C245.298 245.769 244.73 245.312 244.325 244.819C243.922 244.328 243.691 243.821 243.63 243.297C243.571 242.774 243.69 242.256 243.987 241.741ZM244.861 242.245C244.599 242.699 244.616 243.181 244.911 243.692C245.205 244.205 245.771 244.703 246.609 245.186C247.165 245.507 247.669 245.719 248.121 245.823C248.574 245.93 248.963 245.932 249.288 245.829C249.613 245.729 249.862 245.529 250.035 245.23C250.295 244.779 250.278 244.296 249.981 243.782C249.685 243.268 249.12 242.769 248.285 242.284C247.727 241.962 247.221 241.747 246.768 241.64C246.316 241.536 245.929 241.535 245.605 241.637C245.284 241.739 245.036 241.942 244.861 242.245ZM232.865 224.48C232.402 225.282 231.385 225.554 230.592 225.097C229.79 224.634 229.518 223.617 229.981 222.816C230.433 222.033 231.456 221.751 232.258 222.214C233.05 222.671 233.318 223.697 232.865 224.48ZM230.534 223.135C230.246 223.632 230.414 224.257 230.911 224.544C231.4 224.826 232.025 224.659 232.312 224.161C232.589 223.682 232.427 223.048 231.939 222.766C231.441 222.479 230.811 222.656 230.534 223.135Z" fill="white"/>
<path opacity="0.5" d="M98.7821 277.95L98.2965 278.643L94.5949 279.363C94.1967 279.444 93.8598 279.524 93.584 279.601C93.3048 279.679 93.0702 279.775 92.8803 279.888C92.6904 280.001 92.5304 280.15 92.4003 280.336C92.2529 280.547 92.1752 280.763 92.1673 280.985C92.158 281.209 92.21 281.422 92.3235 281.624C92.4355 281.829 92.5989 282.006 92.8135 282.156C93.0405 282.315 93.2711 282.407 93.5053 282.433C93.7396 282.458 93.9614 282.418 94.1707 282.313C94.38 282.207 94.5641 282.041 94.7231 281.814L95.6362 282.453C95.366 282.839 95.041 283.114 94.6611 283.279C94.2813 283.443 93.881 283.497 93.4602 283.439C93.0379 283.383 92.6297 283.217 92.2356 282.941C91.8373 282.663 91.5421 282.338 91.3501 281.967C91.1545 281.596 91.0665 281.215 91.086 280.823C91.104 280.433 91.2323 280.067 91.4707 279.727C91.6355 279.492 91.841 279.293 92.0873 279.13C92.3315 278.966 92.6587 278.822 93.0691 278.697C93.478 278.574 94.0127 278.452 94.6732 278.33L96.8565 277.893L96.889 277.847L94.0351 275.85L94.6096 275.03L98.7821 277.95ZM86.3981 278.727L90.8379 272.391L91.7975 273.062L88.0297 278.44L88.0668 278.466L90.2773 278.537L89.6356 279.453L87.3298 279.379L86.3981 278.727ZM86.7963 269.406C87.284 269.75 87.6115 270.171 87.779 270.67C87.9464 271.168 87.9508 271.726 87.7919 272.343C87.633 272.961 87.3122 273.614 86.8295 274.303C86.3483 274.99 85.8453 275.512 85.3205 275.871C84.7937 276.227 84.2674 276.412 83.7415 276.426C83.2135 276.437 82.7071 276.274 82.2221 275.934C81.7372 275.595 81.4117 275.175 81.2457 274.675C81.0782 274.176 81.0732 273.619 81.2306 273.004C81.3845 272.389 81.7021 271.738 82.1833 271.052C82.6675 270.361 83.1727 269.835 83.6989 269.474C84.2236 269.116 84.7496 268.929 85.277 268.914C85.8029 268.901 86.3093 269.065 86.7963 269.406ZM86.2175 270.232C85.7883 269.931 85.3062 269.906 84.7714 270.156C84.2345 270.404 83.6886 270.924 83.1336 271.717C82.7651 272.243 82.5094 272.726 82.3664 273.167C82.22 273.609 82.1842 273.996 82.259 274.328C82.3304 274.66 82.5074 274.926 82.7901 275.124C83.2173 275.422 83.7 275.447 84.2383 275.196C84.7767 274.946 85.3236 274.426 85.8792 273.638C86.2492 273.11 86.5074 272.625 86.6539 272.183C86.7968 271.742 86.8319 271.356 86.7591 271.026C86.6849 270.697 86.5043 270.432 86.2175 270.232ZM104.972 259.832C104.214 259.301 104.031 258.264 104.556 257.515C105.087 256.757 106.125 256.574 106.883 257.104C107.624 257.623 107.815 258.666 107.284 259.424C106.759 260.173 105.713 260.35 104.972 259.832ZM106.517 257.627C106.046 257.298 105.409 257.41 105.079 257.881C104.755 258.343 104.868 258.979 105.338 259.309C105.792 259.626 106.438 259.52 106.761 259.058C107.091 258.587 106.97 257.944 106.517 257.627Z" fill="white"/>
<path opacity="0.5" d="M211.993 281.081L207.553 274.744L208.513 274.072L212.28 279.45L212.318 279.424L213.141 277.373L213.782 278.288L212.925 280.429L211.993 281.081ZM203.492 277.457C203.88 277.185 204.28 277.016 204.694 276.948C205.107 276.883 205.497 276.917 205.864 277.051C206.231 277.184 206.539 277.415 206.787 277.742L205.858 278.392C205.645 278.136 205.367 277.997 205.026 277.974C204.684 277.952 204.361 278.048 204.055 278.261C203.812 278.432 203.635 278.638 203.525 278.881C203.415 279.128 203.376 279.387 203.407 279.66C203.436 279.935 203.54 280.199 203.718 280.453C203.898 280.711 204.115 280.902 204.368 281.026C204.621 281.15 204.886 281.201 205.163 281.18C205.438 281.159 205.702 281.062 205.956 280.888C206.147 280.754 206.317 280.586 206.465 280.384C206.613 280.182 206.709 279.986 206.753 279.795L207.72 279.312L209.602 282.754L206.116 285.193L205.542 284.373L208.232 282.491L207.191 280.577L207.154 280.603C207.114 280.809 207.02 281.024 206.872 281.248C206.722 281.472 206.529 281.667 206.294 281.832C205.908 282.102 205.5 282.25 205.07 282.278C204.638 282.306 204.224 282.223 203.828 282.026C203.432 281.833 203.091 281.531 202.805 281.119C202.516 280.71 202.352 280.279 202.314 279.826C202.274 279.374 202.355 278.94 202.555 278.523C202.754 278.11 203.066 277.754 203.492 277.457ZM197.799 281.413C198.29 281.072 198.798 280.909 199.324 280.922C199.85 280.935 200.376 281.122 200.902 281.482C201.428 281.843 201.933 282.367 202.415 283.056C202.897 283.743 203.216 284.394 203.373 285.01C203.529 285.626 203.523 286.184 203.355 286.682C203.186 287.182 202.859 287.602 202.374 287.941C201.889 288.281 201.383 288.443 200.855 288.427C200.329 288.414 199.804 288.228 199.279 287.87C198.754 287.515 198.251 286.995 197.769 286.308C197.285 285.617 196.964 284.962 196.805 284.345C196.647 283.73 196.652 283.172 196.818 282.671C196.985 282.173 197.312 281.753 197.799 281.413ZM198.378 282.239C197.949 282.539 197.76 282.983 197.812 283.571C197.862 284.16 198.165 284.851 198.72 285.643C199.088 286.169 199.455 286.574 199.821 286.859C200.186 287.148 200.538 287.314 200.876 287.357C201.213 287.404 201.523 287.328 201.806 287.131C202.233 286.832 202.421 286.387 202.369 285.795C202.318 285.204 202.017 284.513 201.465 283.721C201.095 283.193 200.728 282.785 200.362 282.496C199.997 282.211 199.646 282.046 199.31 282.002C198.976 281.959 198.665 282.038 198.378 282.239ZM195.027 261.06C194.268 261.591 193.231 261.408 192.706 260.658C192.175 259.9 192.357 258.863 193.116 258.333C193.857 257.814 194.903 257.991 195.434 258.749C195.959 259.498 195.767 260.541 195.027 261.06ZM193.482 258.856C193.011 259.185 192.899 259.822 193.229 260.292C193.552 260.754 194.19 260.867 194.66 260.537C195.114 260.22 195.235 259.577 194.911 259.115C194.581 258.645 193.935 258.538 193.482 258.856Z" fill="white"/>
<path d="M143.627 22V6.88969H147.124L151.527 15.3946L151.484 6.88969H154.549V22H151.268L146.649 13.1713L146.692 22H143.627Z" fill="#F70000"/>
<path d="M149.372 298.155V288.736H150.798V296.729H150.853L153.107 295.257V296.619L150.757 298.155H149.372ZM143.152 288.607C143.811 288.607 144.394 288.72 144.9 288.947C145.403 289.174 145.797 289.487 146.082 289.885C146.367 290.284 146.508 290.738 146.505 291.247C146.508 291.645 146.427 292.012 146.261 292.346C146.092 292.683 145.864 292.964 145.576 293.188C145.288 293.415 144.966 293.559 144.61 293.62V293.675C145.079 293.789 145.455 294.04 145.737 294.429C146.019 294.819 146.158 295.267 146.155 295.772C146.158 296.254 146.031 296.683 145.774 297.06C145.513 297.441 145.156 297.739 144.702 297.957C144.248 298.175 143.731 298.284 143.152 298.284C142.579 298.284 142.066 298.173 141.616 297.953C141.162 297.735 140.805 297.436 140.544 297.056C140.283 296.679 140.152 296.251 140.149 295.772C140.152 295.267 140.296 294.819 140.581 294.429C140.866 294.04 141.237 293.789 141.694 293.675V293.62C141.341 293.559 141.024 293.415 140.742 293.188C140.457 292.964 140.23 292.683 140.061 292.346C139.889 292.012 139.802 291.645 139.799 291.247C139.802 290.738 139.946 290.284 140.231 289.885C140.517 289.487 140.912 289.174 141.418 288.947C141.921 288.72 142.499 288.607 143.152 288.607ZM143.152 289.77C142.763 289.77 142.425 289.835 142.14 289.964C141.855 290.095 141.634 290.278 141.478 290.511C141.321 290.747 141.242 291.023 141.239 291.339C141.242 291.667 141.328 291.957 141.496 292.208C141.662 292.459 141.887 292.657 142.172 292.801C142.457 292.945 142.784 293.018 143.152 293.018C143.523 293.018 143.853 292.945 144.141 292.801C144.429 292.657 144.656 292.459 144.821 292.208C144.987 291.957 145.068 291.667 145.065 291.339C145.068 291.023 144.993 290.747 144.84 290.511C144.683 290.278 144.461 290.095 144.173 289.964C143.885 289.835 143.544 289.77 143.152 289.77ZM143.152 294.154C142.839 294.154 142.562 294.216 142.319 294.342C142.077 294.468 141.887 294.643 141.749 294.866C141.608 295.09 141.536 295.352 141.533 295.653C141.536 295.947 141.607 296.205 141.745 296.426C141.879 296.646 142.068 296.817 142.31 296.936C142.552 297.059 142.833 297.12 143.152 297.12C143.477 297.12 143.762 297.059 144.007 296.936C144.25 296.817 144.438 296.646 144.573 296.426C144.708 296.205 144.774 295.947 144.771 295.653C144.774 295.352 144.706 295.09 144.569 294.866C144.431 294.643 144.24 294.468 143.998 294.342C143.753 294.216 143.471 294.154 143.152 294.154ZM134.173 288.556C134.93 288.556 135.58 288.748 136.123 289.131C136.663 289.517 137.078 290.074 137.37 290.801C137.658 291.53 137.802 292.409 137.802 293.436C137.799 294.463 137.653 295.337 137.365 296.058C137.074 296.781 136.658 297.333 136.119 297.713C135.576 298.094 134.927 298.284 134.173 298.284C133.419 298.284 132.77 298.094 132.227 297.713C131.685 297.333 131.269 296.781 130.981 296.058C130.69 295.334 130.544 294.46 130.544 293.436C130.544 292.406 130.69 291.526 130.981 290.796C131.269 290.069 131.685 289.514 132.227 289.131C132.767 288.748 133.416 288.556 134.173 288.556ZM134.173 289.996C133.584 289.996 133.12 290.286 132.779 290.865C132.436 291.448 132.264 292.305 132.264 293.436C132.264 294.184 132.342 294.813 132.499 295.322C132.655 295.831 132.876 296.214 133.161 296.472C133.446 296.732 133.784 296.863 134.173 296.863C134.759 296.863 135.222 296.571 135.562 295.989C135.902 295.409 136.074 294.558 136.077 293.436C136.08 292.685 136.005 292.053 135.852 291.541C135.695 291.029 135.475 290.643 135.189 290.382C134.904 290.125 134.565 289.996 134.173 289.996ZM145.829 265.909C144.702 265.909 143.795 265.002 143.795 263.888C143.795 262.761 144.702 261.855 145.829 261.855C146.93 261.855 147.849 262.761 147.849 263.888C147.849 265.002 146.93 265.909 145.829 265.909ZM145.829 262.632C145.129 262.632 144.572 263.189 144.572 263.888C144.572 264.575 145.129 265.132 145.829 265.132C146.502 265.132 147.072 264.575 147.072 263.888C147.072 263.189 146.502 262.632 145.829 262.632Z" fill="white"/>
<path d="M41.9541 188.17L40.7215 188.17L37.5158 184.9C37.1999 184.587 36.9194 184.327 36.6741 184.118C36.4288 183.91 36.1912 183.753 35.9612 183.649C35.7312 183.545 35.4859 183.493 35.2253 183.493C34.9279 183.493 34.6734 183.56 34.4618 183.695C34.2472 183.83 34.0816 184.016 33.9651 184.252C33.8486 184.488 33.7903 184.756 33.7903 185.057C33.7903 185.366 33.8547 185.638 33.9835 185.871C34.1092 186.104 34.2886 186.285 34.5216 186.413C34.7546 186.539 35.0321 186.602 35.3541 186.602L35.3541 188.226C34.7562 188.226 34.2364 188.089 33.7949 187.816C33.3534 187.543 33.0115 187.168 32.7693 186.689C32.527 186.208 32.4059 185.656 32.4059 185.034C32.4059 184.402 32.524 183.847 32.7601 183.369C32.9962 182.89 33.3196 182.519 33.7305 182.256C34.1414 181.989 34.6105 181.855 35.1379 181.855C35.4905 181.855 35.837 181.923 36.1774 182.058C36.5177 182.193 36.8948 182.43 37.3088 182.771C37.7227 183.108 38.2241 183.582 38.8128 184.192L40.4639 185.815L40.5283 185.815L40.5283 181.713L41.9541 181.713L41.9541 188.17ZM41.9541 179.393L34.0249 175.387L33.9605 175.387L33.9605 180.037L32.5347 180.037L32.5347 173.62L33.9927 173.62L41.9541 177.622L41.9541 179.393ZM42.1335 168.468C42.1335 169.226 41.9418 169.876 41.5586 170.418C41.1722 170.958 40.6157 171.373 39.889 171.665C39.1592 171.953 38.2808 172.097 37.2536 172.097C36.2264 172.094 35.3525 171.948 34.632 171.66C33.9084 171.369 33.3564 170.953 32.9762 170.414C32.596 169.871 32.4059 169.222 32.4059 168.468C32.4059 167.714 32.596 167.065 32.9762 166.523C33.3564 165.98 33.9084 165.564 34.632 165.276C35.3556 164.985 36.2295 164.839 37.2536 164.839C38.2838 164.839 39.1638 164.985 39.8936 165.276C40.6203 165.564 41.1753 165.98 41.5586 166.523C41.9418 167.062 42.1335 167.711 42.1335 168.468ZM40.6939 168.468C40.6939 167.879 40.4041 167.415 39.8246 167.075C39.242 166.731 38.385 166.559 37.2536 166.559C36.5054 166.559 35.8769 166.638 35.3679 166.794C34.8589 166.95 34.4756 167.171 34.218 167.456C33.9574 167.741 33.8271 168.079 33.8271 168.468C33.8271 169.054 34.1184 169.517 34.701 169.857C35.2805 170.198 36.1314 170.369 37.2536 170.372C38.0048 170.375 38.6365 170.3 39.1485 170.147C39.6606 169.991 40.0469 169.77 40.3075 169.485C40.5651 169.199 40.6939 168.861 40.6939 168.468ZM38.7809 161.26C38.7809 160.133 39.6876 159.227 40.8014 159.227C41.9282 159.227 42.8348 160.133 42.8348 161.26C42.8348 162.361 41.9282 163.28 40.8014 163.28C39.6876 163.28 38.7809 162.361 38.7809 161.26ZM42.0577 161.26C42.0577 160.561 41.5008 160.004 40.8014 160.004C40.115 160.004 39.558 160.561 39.558 161.26C39.558 161.934 40.115 162.503 40.8014 162.503C41.5008 162.503 42.0577 161.934 42.0577 161.26Z" fill="white"/>
<path d="M270.351 171.428C270.348 171.848 270.272 172.262 270.121 172.67C269.971 173.077 269.726 173.445 269.386 173.773C269.045 174.105 268.585 174.368 268.006 174.565C267.429 174.764 266.712 174.865 265.853 174.868C265.028 174.868 264.294 174.785 263.65 174.62C263.009 174.454 262.468 174.217 262.027 173.907C261.585 173.6 261.249 173.228 261.019 172.789C260.789 172.351 260.674 171.857 260.674 171.308C260.674 170.747 260.785 170.249 261.006 169.813C261.226 169.378 261.531 169.024 261.921 168.751C262.313 168.478 262.764 168.308 263.273 168.24L263.273 169.643C262.868 169.735 262.54 169.922 262.289 170.204C262.04 170.49 261.916 170.857 261.916 171.308C261.916 171.998 262.217 172.536 262.818 172.923C263.422 173.309 264.265 173.504 265.347 173.507L265.347 173.433C265.084 173.274 264.857 173.074 264.667 172.835C264.477 172.599 264.329 172.334 264.225 172.039C264.121 171.745 264.069 171.431 264.069 171.097C264.069 170.554 264.202 170.06 264.469 169.616C264.736 169.171 265.102 168.817 265.568 168.553C266.034 168.29 266.566 168.158 267.164 168.158C267.759 168.158 268.299 168.293 268.783 168.562C269.268 168.835 269.651 169.216 269.933 169.703C270.218 170.194 270.358 170.769 270.351 171.428ZM269.156 171.432C269.156 171.074 269.067 170.75 268.889 170.462C268.714 170.177 268.476 169.951 268.176 169.786C267.879 169.62 267.547 169.537 267.182 169.537C266.818 169.537 266.486 169.617 266.189 169.777C265.895 169.939 265.66 170.16 265.485 170.439C265.314 170.721 265.228 171.043 265.228 171.405C265.228 171.675 265.28 171.926 265.384 172.159C265.488 172.392 265.633 172.596 265.816 172.771C266.004 172.946 266.215 173.082 266.451 173.18C266.687 173.278 266.936 173.327 267.196 173.327C267.543 173.327 267.865 173.245 268.162 173.079C268.46 172.916 268.699 172.693 268.88 172.407C269.064 172.122 269.156 171.797 269.156 171.432ZM260.624 180.331C260.624 179.573 260.815 178.923 261.199 178.381C261.585 177.841 262.142 177.426 262.868 177.134C263.598 176.846 264.477 176.702 265.504 176.702C266.531 176.705 267.405 176.851 268.125 177.139C268.849 177.43 269.401 177.846 269.781 178.385C270.161 178.928 270.351 179.577 270.351 180.331C270.351 181.085 270.161 181.734 269.781 182.276C269.401 182.819 268.849 183.235 268.125 183.523C267.402 183.814 266.528 183.96 265.504 183.96C264.473 183.96 263.593 183.814 262.864 183.523C262.137 183.235 261.582 182.819 261.199 182.276C260.815 181.737 260.624 181.088 260.624 180.331ZM262.063 180.331C262.063 180.92 262.353 181.384 262.933 181.724C263.515 182.068 264.372 182.24 265.504 182.24C266.252 182.24 266.88 182.161 267.389 182.005C267.898 181.849 268.282 181.628 268.539 181.343C268.8 181.058 268.93 180.72 268.93 180.331C268.93 179.745 268.639 179.282 268.056 178.942C267.477 178.601 266.626 178.43 265.504 178.427C264.753 178.424 264.121 178.499 263.609 178.652C263.097 178.808 262.71 179.029 262.45 179.314C262.192 179.6 262.063 179.938 262.063 180.331ZM263.976 187.261C263.976 188.388 263.07 189.294 261.956 189.294C260.829 189.294 259.923 188.388 259.923 187.261C259.923 186.16 260.829 185.24 261.956 185.24C263.07 185.24 263.976 186.16 263.976 187.261ZM260.7 187.261C260.7 187.96 261.257 188.517 261.956 188.517C262.642 188.517 263.199 187.96 263.199 187.261C263.199 186.587 262.642 186.017 261.956 186.017C261.257 186.017 260.7 186.587 260.7 187.261Z" fill="white"/>
<path fill-rule="evenodd" clip-rule="evenodd" d="M148.679 32.7653C148.679 32.3393 148.333 31.994 147.907 31.994C147.481 31.994 147.136 32.3393 147.136 32.7653V50.4954C147.136 50.9214 147.481 51.2668 147.907 51.2668C148.333 51.2668 148.679 50.9214 148.679 50.4954V32.7653ZM148.679 304.134C148.679 303.708 148.333 303.363 147.907 303.363C147.481 303.363 147.136 303.708 147.136 304.134V321.864C147.136 322.29 147.481 322.635 147.907 322.635C148.333 322.635 148.679 322.29 148.679 321.864V304.134Z" fill="white"/>
<path fill-rule="evenodd" clip-rule="evenodd" d="M6.35392 175.773C5.92816 175.773 5.58301 176.118 5.58301 176.544C5.58301 176.97 5.92816 177.315 6.35392 177.315H24.0967C24.5225 177.315 24.8676 176.97 24.8676 176.544C24.8676 176.118 24.5225 175.773 24.0967 175.773H6.35392ZM278.274 175.773C277.848 175.773 277.503 176.118 277.503 176.544C277.503 176.97 277.848 177.315 278.274 177.315L296.017 177.315C296.443 177.315 296.788 176.97 296.788 176.544C296.788 176.118 296.443 175.773 296.017 175.773H278.274Z" fill="white"/>
<path fill-rule="evenodd" clip-rule="evenodd" d="M25.3715 248.248C25.0027 248.461 24.8764 248.932 25.0894 249.301C25.3024 249.669 25.7741 249.796 26.1429 249.583L41.5082 240.717C41.8771 240.504 42.0034 240.033 41.7904 239.664C41.5774 239.296 41.1057 239.169 40.7369 239.382L25.3715 248.248ZM260.862 112.37C260.493 112.583 260.367 113.055 260.58 113.423C260.793 113.792 261.264 113.918 261.633 113.706L276.998 104.84C277.367 104.627 277.494 104.156 277.281 103.787C277.068 103.418 276.596 103.292 276.227 103.505L260.862 112.37Z" fill="white" fill-opacity="0.5"/>
<path fill-rule="evenodd" clip-rule="evenodd" d="M78.1019 301.509C77.8889 301.878 78.0152 302.349 78.3842 302.562C78.7531 302.775 79.2249 302.649 79.438 302.28L88.3087 286.925C88.5218 286.556 88.3954 286.084 88.0265 285.872C87.6575 285.659 87.1857 285.785 86.9726 286.154L78.1019 301.509ZM214.063 66.1637C213.85 66.5325 213.976 67.0041 214.345 67.2169C214.714 67.4298 215.186 67.3034 215.399 66.9346L224.269 51.5795C224.483 51.2106 224.356 50.7391 223.987 50.5262C223.618 50.3133 223.146 50.4397 222.933 50.8086L214.063 66.1637Z" fill="white" fill-opacity="0.5"/>
<path fill-rule="evenodd" clip-rule="evenodd" d="M222.935 302.279C223.148 302.648 223.62 302.775 223.989 302.562C224.358 302.349 224.484 301.877 224.271 301.508L215.4 286.153C215.187 285.784 214.715 285.658 214.346 285.871C213.977 286.084 213.851 286.555 214.064 286.924L222.935 302.279ZM86.9745 66.9332C87.1876 67.302 87.6594 67.4285 88.0284 67.2156C88.3973 67.0027 88.5237 66.5311 88.3106 66.1623L79.4399 50.8072C79.2268 50.4384 78.755 50.3119 78.386 50.5248C78.0171 50.7377 77.8907 51.2093 78.1038 51.5781L86.9745 66.9332Z" fill="white" fill-opacity="0.5"/>
<path fill-rule="evenodd" clip-rule="evenodd" d="M276.228 249.583C276.597 249.796 277.068 249.669 277.281 249.301C277.494 248.932 277.368 248.46 276.999 248.248L261.634 239.382C261.265 239.169 260.793 239.295 260.58 239.664C260.367 240.033 260.494 240.504 260.862 240.717L276.228 249.583ZM40.7378 113.706C41.1066 113.919 41.5783 113.792 41.7913 113.424C42.0043 113.055 41.878 112.583 41.5091 112.371L26.1438 103.505C25.775 103.292 25.3033 103.418 25.0903 103.787C24.8773 104.156 25.0036 104.627 25.3724 104.84L40.7378 113.706Z" fill="white" fill-opacity="0.5"/>
<path fill-rule="evenodd" clip-rule="evenodd" d="M11.3394 213.144C10.9289 213.254 10.6853 213.676 10.7953 214.087C10.9054 214.497 11.3274 214.741 11.738 214.631L16.9448 213.237C17.3554 213.127 17.599 212.705 17.4889 212.294C17.3788 211.884 16.9568 211.64 16.5463 211.75L11.3394 213.144ZM285.04 139.851C284.629 139.961 284.386 140.383 284.496 140.793C284.606 141.204 285.028 141.447 285.438 141.337L290.645 139.943C291.056 139.833 291.299 139.411 291.189 139.001C291.079 138.59 290.657 138.347 290.247 138.457L285.04 139.851Z" fill="white" fill-opacity="0.3"/>
<path fill-rule="evenodd" clip-rule="evenodd" d="M48.3618 278.023C48.0611 278.324 48.0611 278.811 48.3618 279.112C48.6625 279.412 49.15 279.412 49.4507 279.112L53.2618 275.303C53.5625 275.002 53.5625 274.515 53.2618 274.215C52.9611 273.914 52.4736 273.914 52.1729 274.215L48.3618 278.023ZM248.348 78.1453C248.047 78.4458 248.047 78.933 248.348 79.2335C248.649 79.534 249.136 79.534 249.437 79.2335L253.803 74.8706C254.103 74.5701 254.103 74.0829 253.803 73.7824C253.502 73.4818 253.014 73.4818 252.714 73.7823L248.348 78.1453Z" fill="white" fill-opacity="0.3"/>
<path fill-rule="evenodd" clip-rule="evenodd" d="M112.882 315.711C112.772 316.122 113.015 316.544 113.426 316.654C113.837 316.764 114.259 316.52 114.369 316.11L115.764 310.908C115.874 310.497 115.63 310.075 115.22 309.965C114.809 309.855 114.387 310.099 114.277 310.509L112.882 315.711ZM186.219 42.1794C186.109 42.5902 186.353 43.0123 186.764 43.1223C187.174 43.2322 187.597 42.9885 187.707 42.5777L189.101 37.3756C189.212 36.9649 188.968 36.5428 188.557 36.4328C188.146 36.3228 187.724 36.5666 187.614 36.9773L186.219 42.1794Z" fill="white" fill-opacity="0.3"/>
<path fill-rule="evenodd" clip-rule="evenodd" d="M187.614 316.11C187.725 316.521 188.147 316.765 188.558 316.655C188.968 316.545 189.212 316.123 189.102 315.712L187.707 310.51C187.597 310.099 187.175 309.856 186.764 309.966C186.353 310.076 186.11 310.498 186.22 310.908L187.614 316.11ZM114.276 42.5789C114.387 42.9896 114.809 43.2334 115.22 43.1234C115.63 43.0134 115.874 42.5913 115.764 42.1805L114.369 36.9784C114.259 36.5677 113.837 36.3239 113.426 36.4339C113.015 36.5439 112.772 36.966 112.882 37.3767L114.276 42.5789Z" fill="white" fill-opacity="0.3"/>
<path fill-rule="evenodd" clip-rule="evenodd" d="M252.534 279.112C252.834 279.412 253.322 279.412 253.622 279.112C253.923 278.811 253.923 278.324 253.622 278.024L249.811 274.215C249.511 273.914 249.023 273.914 248.722 274.215C248.422 274.515 248.422 275.003 248.722 275.303L252.534 279.112ZM52.1718 78.8726C52.4725 79.1731 52.96 79.1731 53.2607 78.8726C53.5614 78.5721 53.5614 78.0849 53.2607 77.7844L49.4496 73.9756C49.1489 73.6751 48.6614 73.6751 48.3607 73.9756C48.06 74.2761 48.06 74.7633 48.3607 75.0638L52.1718 78.8726Z" fill="white" fill-opacity="0.3"/>
<path fill-rule="evenodd" clip-rule="evenodd" d="M290.247 214.631C290.657 214.741 291.079 214.497 291.189 214.087C291.299 213.676 291.056 213.254 290.645 213.144L285.438 211.75C285.028 211.64 284.606 211.884 284.496 212.294C284.386 212.705 284.629 213.127 285.04 213.237L290.247 214.631ZM16.5464 141.338C16.957 141.448 17.379 141.204 17.489 140.794C17.5991 140.383 17.3555 139.961 16.945 139.851L11.7381 138.457C11.3276 138.347 10.9056 138.591 10.7955 139.001C10.6854 139.412 10.929 139.834 11.3396 139.944L16.5464 141.338Z" fill="white" fill-opacity="0.3"/>
<defs>
<filter id="filter0_ii_165_314" x="0.181641" y="24.2844" width="302.005" height="305.675" filterUnits="userSpaceOnUse" color-interpolation-filters="sRGB">
<feFlood flood-opacity="0" result="BackgroundImageFix"/>
<feBlend mode="normal" in="SourceGraphic" in2="BackgroundImageFix" result="shape"/>
<feColorMatrix in="SourceAlpha" type="matrix" values="0 0 0 0 0 0 0 0 0 0 0 0 0 0 0 0 0 0 127 0" result="hardAlpha"/>
<feOffset dy="1.92733"/>
<feGaussianBlur stdDeviation="1.92733"/>
<feComposite in2="hardAlpha" operator="arithmetic" k2="-1" k3="1"/>
<feColorMatrix type="matrix" values="0 0 0 0 0 0 0 0 0 0 0 0 0 0 0 0 0 0 0.25 0"/>
<feBlend mode="normal" in2="shape" result="effect1_innerShadow_165_314"/>
<feColorMatrix in="SourceAlpha" type="matrix" values="0 0 0 0 0 0 0 0 0 0 0 0 0 0 0 0 0 0 127 0" result="hardAlpha"/>
<feOffset dy="-1.92733"/>
<feGaussianBlur stdDeviation="1.92733"/>
<feComposite in2="hardAlpha" operator="arithmetic" k2="-1" k3="1"/>
<feColorMatrix type="matrix" values="0 0 0 0 0 0 0 0 0 0 0 0 0 0 0 0 0 0 0.25 0"/>
<feBlend mode="normal" in2="effect1_innerShadow_165_314" result="effect2_innerShadow_165_314"/>
</filter>
<filter id="filter1_i_165_314" x="53.7954" y="81.7192" width="194.78" height="200.443" filterUnits="userSpaceOnUse" color-interpolation-filters="sRGB">
<feFlood flood-opacity="0" result="BackgroundImageFix"/>
<feBlend mode="normal" in="SourceGraphic" in2="BackgroundImageFix" result="shape"/>
<feColorMatrix in="SourceAlpha" type="matrix" values="0 0 0 0 0 0 0 0 0 0 0 0 0 0 0 0 0 0 127 0" result="hardAlpha"/>
<feMorphology radius="11.564" operator="erode" in="SourceAlpha" result="effect1_innerShadow_165_314"/>
<feOffset dy="5.782"/>
<feGaussianBlur stdDeviation="9.63667"/>
<feComposite in2="hardAlpha" operator="arithmetic" k2="-1" k3="1"/>
<feColorMatrix type="matrix" values="0 0 0 0 0 0 0 0 0 0 0 0 0 0 0 0 0 0 0.2 0"/>
<feBlend mode="normal" in2="shape" result="effect1_innerShadow_165_314"/>
</filter>
<filter id="filter2_di_165_314" x="63.4521" y="97.277" width="175.466" height="175.388" filterUnits="userSpaceOnUse" color-interpolation-filters="sRGB">
<feFlood flood-opacity="0" result="BackgroundImageFix"/>
<feColorMatrix in="SourceAlpha" type="matrix" values="0 0 0 0 0 0 0 0 0 0 0 0 0 0 0 0 0 0 127 0" result="hardAlpha"/>
<feMorphology radius="7.70934" operator="dilate" in="SourceAlpha" result="effect1_dropShadow_165_314"/>
<feOffset dy="5.782"/>
<feGaussianBlur stdDeviation="7.70934"/>
<feComposite in2="hardAlpha" operator="out"/>
<feColorMatrix type="matrix" values="0 0 0 0 0 0 0 0 0 0 0 0 0 0 0 0 0 0 0.31 0"/>
<feBlend mode="normal" in2="BackgroundImageFix" result="effect1_dropShadow_165_314"/>
<feBlend mode="normal" in="SourceGraphic" in2="effect1_dropShadow_165_314" result="shape"/>
<feColorMatrix in="SourceAlpha" type="matrix" values="0 0 0 0 0 0 0 0 0 0 0 0 0 0 0 0 0 0 127 0" result="hardAlpha"/>
<feMorphology radius="7.70934" operator="erode" in="SourceAlpha" result="effect2_innerShadow_165_314"/>
<feOffset dy="5.782"/>
<feGaussianBlur stdDeviation="9.63667"/>
<feComposite in2="hardAlpha" operator="arithmetic" k2="-1" k3="1"/>
<feColorMatrix type="matrix" values="0 0 0 0 0 0 0 0 0 0 0 0 0 0 0 0 0 0 0.51 0"/>
<feBlend mode="normal" in2="shape" result="effect2_innerShadow_165_314"/>
</filter>
<filter id="filter3_d_165_314" x="49.5595" y="180.54" width="49.7408" height="49.7245" filterUnits="userSpaceOnUse" color-interpolation-filters="sRGB">
<feFlood flood-opacity="0" result="BackgroundImageFix"/>
<feColorMatrix in="SourceAlpha" type="matrix" values="0 0 0 0 0 0 0 0 0 0 0 0 0 0 0 0 0 0 127 0" result="hardAlpha"/>
<feMorphology radius="3.85467" operator="dilate" in="SourceAlpha" result="effect1_dropShadow_165_314"/>
<feOffset dy="1.54187"/>
<feGaussianBlur stdDeviation="3.85467"/>
<feComposite in2="hardAlpha" operator="out"/>
<feColorMatrix type="matrix" values="0 0 0 0 0.101961 0 0 0 0 0.45098 0 0 0 0 0.909804 0 0 0 0.07 0"/>
<feBlend mode="normal" in2="BackgroundImageFix" result="effect1_dropShadow_165_314"/>
<feBlend mode="normal" in="SourceGraphic" in2="effect1_dropShadow_165_314" result="shape"/>
</filter>
<filter id="filter4_f_165_314" x="53.8032" y="183.623" width="41.6412" height="40.4735" filterUnits="userSpaceOnUse" color-interpolation-filters="sRGB">
<feFlood flood-opacity="0" result="BackgroundImageFix"/>
<feBlend mode="normal" in="SourceGraphic" in2="BackgroundImageFix" result="shape"/>
<feGaussianBlur stdDeviation="5.782" result="effect1_foregroundBlur_165_314"/>
</filter>
</defs>
</svg>
