<?xml version="1.0" standalone="no"?>
<!DOCTYPE svg PUBLIC "-//W3C//DTD SVG 20010904//EN"
 "http://www.w3.org/TR/2001/REC-SVG-20010904/DTD/svg10.dtd">
<svg version="1.0" xmlns="http://www.w3.org/2000/svg"
 width="50.000000pt" height="50.000000pt" viewBox="0 0 800.000000 800.000000"
 preserveAspectRatio="xMidYMid meet">

<g transform="translate(0.000000,800.000000) scale(0.100000,-0.100000)"
fill="#ffffff" stroke="none">
<path d="M3755 6964 c-16 -2 -73 -9 -125 -15 -208 -23 -487 -92 -688 -170
-406 -158 -732 -371 -1043 -679 -494 -491 -791 -1125 -860 -1835 -24 -247 -2
-613 51 -877 150 -733 602 -1410 1230 -1840 354 -242 752 -404 1171 -477 353
-61 765 -54 1123 20 924 191 1721 838 2104 1709 184 417 262 824 249 1290 -9
305 -52 559 -142 833 -150 454 -392 846 -735 1187 -487 485 -1118 781 -1809
850 -95 9 -455 12 -526 4z m655 -2190 l5 -1242 210 204 c116 112 278 270 362
350 l152 146 23 -19 c13 -10 142 -141 287 -291 l265 -274 -90 -87 c-49 -47
-240 -232 -424 -411 -184 -178 -411 -399 -505 -490 -358 -349 -513 -499 -603
-585 l-92 -89 -73 69 c-39 39 -146 142 -237 230 -91 89 -318 309 -505 490
-187 181 -421 409 -520 505 -99 97 -225 219 -280 272 l-100 97 125 128 c354
363 444 453 451 451 7 -3 81 -73 559 -536 l165 -159 3 1244 2 1243 408 -2 407
-3 5 -1241z"/>
</g>
</svg>
