<svg width="70" height="113" viewBox="0 0 108 113" fill="none" xmlns="http://www.w3.org/2000/svg">
<g filter="url(#filter0_d_165_148)">
<ellipse cx="53.9992" cy="52.9705" rx="44.9992" ry="47.9705" fill="#113A59"/>
<path d="M53.9992 103.441C80.3804 103.441 101.498 80.6917 101.498 52.9705C101.498 25.2494 80.3804 2.5 53.9992 2.5C27.6179 2.5 6.5 25.2494 6.5 52.9705C6.5 80.6917 27.6179 103.441 53.9992 103.441Z" stroke="#05B2DC" stroke-width="5"/>
</g>
<g style="mix-blend-mode:soft-light">
<path d="M52.7992 91.9283C72.5531 91.9283 88.2986 74.9061 88.2986 54.2499C88.2986 33.5937 72.5531 16.5715 52.7992 16.5715C33.0452 16.5715 17.2998 33.5937 17.2998 54.2499C17.2998 74.9061 33.0452 91.9283 52.7992 91.9283Z" fill="#D9D9D9"/>
<path d="M52.7992 91.9283C72.5531 91.9283 88.2986 74.9061 88.2986 54.2499C88.2986 33.5937 72.5531 16.5715 52.7992 16.5715C33.0452 16.5715 17.2998 33.5937 17.2998 54.2499C17.2998 74.9061 33.0452 91.9283 52.7992 91.9283Z" stroke="#05B2DC" stroke-width="5"/>
</g>
<path d="M41.4196 36.7617L41.4202 36.7619L73.6302 50.9C73.6303 50.9001 73.6304 50.9001 73.6305 50.9002C74.4481 51.259 75.1223 51.8556 75.5872 52.5899L73.4749 53.9272L75.5872 52.5899C76.0513 53.3229 76.2934 54.1702 76.299 55.0263C76.3047 55.8824 76.0739 56.7325 75.6202 57.4714C75.1658 58.2114 74.5007 58.817 73.6892 59.1877C73.6889 59.1878 73.6887 59.1879 73.6884 59.188L62.0314 64.5139L57.0187 76.9827C57.0186 76.9829 57.0185 76.9832 57.0184 76.9834C56.6969 77.7834 56.1509 78.4897 55.4255 78.9959C54.6976 79.5039 53.8274 79.7823 52.925 79.7755C52.0227 79.7687 51.1572 79.4773 50.4372 78.9593C49.7196 78.443 49.1836 77.7295 48.8731 76.9254L41.4196 36.7617ZM41.4196 36.7617C40.5974 36.401 39.6834 36.305 38.8001 36.4936C37.9184 36.682 37.132 37.1396 36.5302 37.7816L38.3542 39.4913L36.5302 37.7816C35.93 38.4219 35.5373 39.2186 35.3791 40.0638C35.2211 40.9081 35.2997 41.7849 35.6108 42.5897C35.6109 42.59 35.6111 42.5903 35.6112 42.5906C35.6112 42.5907 35.6112 42.5908 35.6112 42.5908L48.873 76.9251L41.4196 36.7617Z" fill="white" stroke="#05B2DC" stroke-width="5"/>
<path d="M41.4196 36.7617L41.4202 36.7619L73.6302 50.9C73.6303 50.9001 73.6304 50.9001 73.6305 50.9002C74.4481 51.259 75.1223 51.8556 75.5872 52.5899L73.4749 53.9272L75.5872 52.5899C76.0513 53.3229 76.2934 54.1702 76.299 55.0263C76.3047 55.8824 76.0739 56.7325 75.6202 57.4714C75.1658 58.2114 74.5007 58.817 73.6892 59.1877C73.6889 59.1878 73.6887 59.1879 73.6884 59.188L62.0314 64.5139L57.0187 76.9827C57.0186 76.9829 57.0185 76.9832 57.0184 76.9834C56.6969 77.7834 56.1509 78.4897 55.4255 78.9959C54.6976 79.5039 53.8274 79.7823 52.925 79.7755C52.0227 79.7687 51.1572 79.4773 50.4372 78.9593C49.7196 78.443 49.1836 77.7295 48.8731 76.9254L41.4196 36.7617ZM41.4196 36.7617C40.5974 36.401 39.6834 36.305 38.8001 36.4936C37.9184 36.682 37.132 37.1396 36.5302 37.7816L38.3542 39.4913L36.5302 37.7816C35.93 38.4219 35.5373 39.2186 35.3791 40.0638C35.2211 40.9081 35.2997 41.7849 35.6108 42.5897C35.6109 42.59 35.6111 42.5903 35.6112 42.5906C35.6112 42.5907 35.6112 42.5908 35.6112 42.5908L48.873 76.9251L41.4196 36.7617Z" fill="white" stroke="#05B2DC" stroke-width="5"/>
<defs>
<filter id="filter0_d_165_148" x="0.883718" y="0" width="106.231" height="112.174" filterUnits="userSpaceOnUse" color-interpolation-filters="sRGB">
<feFlood flood-opacity="0" result="BackgroundImageFix"/>
<feColorMatrix in="SourceAlpha" type="matrix" values="0 0 0 0 0 0 0 0 0 0 0 0 0 0 0 0 0 0 127 0" result="hardAlpha"/>
<feOffset dy="3.11628"/>
<feGaussianBlur stdDeviation="1.55814"/>
<feComposite in2="hardAlpha" operator="out"/>
<feColorMatrix type="matrix" values="0 0 0 0 0 0 0 0 0 0 0 0 0 0 0 0 0 0 0.25 0"/>
<feBlend mode="normal" in2="BackgroundImageFix" result="effect1_dropShadow_165_148"/>
<feBlend mode="normal" in="SourceGraphic" in2="effect1_dropShadow_165_148" result="shape"/>
</filter>
</defs>
</svg>
