<svg width="65" height="106" viewBox="0 0 100 106" fill="none" xmlns="http://www.w3.org/2000/svg">
<path d="M49.9992 103.441C76.3804 103.441 97.4983 80.6917 97.4983 52.9705C97.4983 25.2494 76.3804 2.5 49.9992 2.5C23.6179 2.5 2.5 25.2494 2.5 52.9705C2.5 80.6917 23.6179 103.441 49.9992 103.441Z" fill="#113A59" stroke="#05B2DC" stroke-width="5"/>
<g style="mix-blend-mode:soft-light">
<path d="M49.3988 91.9284C69.1527 91.9284 84.8982 74.9062 84.8982 54.25C84.8982 33.5938 69.1527 16.5716 49.3988 16.5716C29.6448 16.5716 13.8994 33.5938 13.8994 54.25C13.8994 74.9062 29.6448 91.9284 49.3988 91.9284Z" fill="#D9D9D9"/>
<path d="M49.3988 91.9284C69.1527 91.9284 84.8982 74.9062 84.8982 54.25C84.8982 33.5938 69.1527 16.5716 49.3988 16.5716C29.6448 16.5716 13.8994 33.5938 13.8994 54.25C13.8994 74.9062 29.6448 91.9284 49.3988 91.9284Z" stroke="#05B2DC" stroke-width="5"/>
</g>
<mask id="path-3-outside-1_165_153" maskUnits="userSpaceOnUse" x="21.6796" y="27.1671" width="53.8296" height="56.6172" fill="black">
<rect fill="white" x="21.6796" y="27.1671" width="53.8296" height="56.6172"/>
<path fill-rule="evenodd" clip-rule="evenodd" d="M69.2459 42.1628C69.443 41.8239 69.5416 41.4304 69.5293 41.0318C69.517 40.6332 69.3943 40.2475 69.1766 39.9232C68.9589 39.5988 68.656 39.3504 68.3062 39.2093C67.9563 39.0682 67.575 39.0407 67.2105 39.1302L33.2626 47.4453C32.8989 47.5343 32.5679 47.7359 32.3113 48.0247C32.0546 48.3134 31.8836 48.6766 31.8198 49.0685C31.7561 49.4605 31.8023 49.8638 31.9527 50.2278C32.1031 50.5919 32.351 50.9005 32.6653 51.1149L43.5401 58.5398C43.9496 58.8194 44.2425 59.2562 44.3582 59.7597L47.4297 73.1313C47.5183 73.5177 47.712 73.8676 47.9865 74.1371C48.261 74.4067 48.604 74.5838 48.9725 74.6462C49.3411 74.7087 49.7187 74.6538 50.0581 74.4883C50.3974 74.3229 50.6834 74.0543 50.8801 73.7163L69.2459 42.1628Z"/>
</mask>
<path fill-rule="evenodd" clip-rule="evenodd" d="M69.2459 42.1628C69.443 41.8239 69.5416 41.4304 69.5293 41.0318C69.517 40.6332 69.3943 40.2475 69.1766 39.9232C68.9589 39.5988 68.656 39.3504 68.3062 39.2093C67.9563 39.0682 67.575 39.0407 67.2105 39.1302L33.2626 47.4453C32.8989 47.5343 32.5679 47.7359 32.3113 48.0247C32.0546 48.3134 31.8836 48.6766 31.8198 49.0685C31.7561 49.4605 31.8023 49.8638 31.9527 50.2278C32.1031 50.5919 32.351 50.9005 32.6653 51.1149L43.5401 58.5398C43.9496 58.8194 44.2425 59.2562 44.3582 59.7597L47.4297 73.1313C47.5183 73.5177 47.712 73.8676 47.9865 74.1371C48.261 74.4067 48.604 74.5838 48.9725 74.6462C49.3411 74.7087 49.7187 74.6538 50.0581 74.4883C50.3974 74.3229 50.6834 74.0543 50.8801 73.7163L69.2459 42.1628Z" fill="white"/>
<path d="M69.2459 42.1628L73.5579 44.7618L73.5585 44.7609L69.2459 42.1628ZM67.2105 39.1302L68.4776 44.0061L68.4802 44.0054L67.2105 39.1302ZM33.2626 47.4453L34.5291 52.3214L34.5297 52.3212L33.2626 47.4453ZM32.6653 51.1149L35.4065 46.9803L35.4052 46.9794L32.6653 51.1149ZM43.5401 58.5398L46.2821 54.4057L46.2814 54.4052L43.5401 58.5398ZM44.3582 59.7597L49.2122 58.7207L49.212 58.7198L44.3582 59.7597ZM47.4297 73.1313L52.284 72.0938L52.2837 72.0923L47.4297 73.1313ZM50.8801 73.7163L46.568 71.1173L46.5678 71.1178L50.8801 73.7163ZM73.5585 44.7609C74.2243 43.6163 74.5512 42.3019 74.5101 40.9738L64.5485 41.0898C64.5321 40.5588 64.6617 40.0315 64.9332 39.5648L73.5585 44.7609ZM74.5101 40.9738C74.469 39.6449 74.0593 38.3193 73.2885 37.1708L65.0647 42.6755C64.7292 42.1757 64.565 41.6216 64.5485 41.0898L74.5101 40.9738ZM73.2885 37.1708C72.5152 36.0186 71.4081 35.0927 70.0808 34.5574L66.5315 43.8613C65.904 43.6082 65.4026 43.179 65.0647 42.6755L73.2885 37.1708ZM70.0808 34.5574C68.7509 34.021 67.3047 33.92 65.9407 34.2549L68.4802 44.0054C67.8453 44.1613 67.1617 44.1154 66.5315 43.8613L70.0808 34.5574ZM65.9433 34.2543L31.9954 42.5694L34.5297 52.3212L68.4776 44.0061L65.9433 34.2543ZM31.9961 42.5693C30.6396 42.9013 29.4569 43.6398 28.5689 44.639L36.0537 51.4103C35.6789 51.832 35.1581 52.1674 34.5291 52.3214L31.9961 42.5693ZM28.5689 44.639C27.6828 45.6358 27.1134 46.8631 26.9018 48.1631L36.7379 49.9739C36.6539 50.49 36.4263 50.991 36.0537 51.4103L28.5689 44.639ZM26.9018 48.1631C26.6902 49.4632 26.8387 50.8219 27.357 52.0765L36.5483 48.3792C36.7658 48.9056 36.8219 49.4577 36.7379 49.9739L26.9018 48.1631ZM27.357 52.0765C27.8765 53.3339 28.755 54.452 29.9254 55.2505L35.4052 46.9794C35.9469 47.349 36.3297 47.8498 36.5483 48.3792L27.357 52.0765ZM29.924 55.2496L40.7989 62.6744L46.2814 54.4052L35.4065 46.9803L29.924 55.2496ZM40.7981 62.6739C40.0918 62.1915 39.6642 61.4949 39.5044 60.7995L49.212 58.7198C48.8207 57.0175 47.8074 55.4474 46.2821 54.4057L40.7981 62.6739ZM39.5042 60.7987L42.5757 74.1703L52.2837 72.0923L49.2122 58.7207L39.5042 60.7987ZM42.5753 74.1688C42.8755 75.4774 43.543 76.713 44.5431 77.695L51.4299 70.5793C51.881 71.0223 52.1611 71.5581 52.284 72.0938L42.5753 74.1688ZM44.5431 77.695C45.5468 78.6805 46.8311 79.3542 48.2389 79.5929L49.7061 69.6996C50.3769 69.8133 50.9751 70.1328 51.4299 70.5793L44.5431 77.695ZM48.2389 79.5929C49.6466 79.8315 51.062 79.6156 52.3006 79.0117L47.8155 69.9649C48.3754 69.692 49.0355 69.5859 49.7061 69.6996L48.2389 79.5929ZM52.3006 79.0117C53.5347 78.4101 54.5272 77.458 55.1925 76.3148L46.5678 71.1178C46.8396 70.6506 47.2601 70.2357 47.8155 69.9649L52.3006 79.0117ZM55.1922 76.3152L73.5579 44.7618L64.9338 39.5639L46.568 71.1173L55.1922 76.3152Z" fill="#05B2DC" mask="url(#path-3-outside-1_165_153)"/>
</svg>
