<svg width="77" height="77" viewBox="0 0 77 77" fill="none" xmlns="http://www.w3.org/2000/svg">
<path d="M67.375 32.0834C67.375 54.5417 38.5 73.7917 38.5 73.7917C38.5 73.7917 9.625 54.5417 9.625 32.0834C9.625 24.4252 12.6672 17.0808 18.0823 11.6657C23.4974 6.25055 30.8419 3.20837 38.5 3.20837C46.1581 3.20837 53.5026 6.25055 58.9177 11.6657C64.3328 17.0808 67.375 24.4252 67.375 32.0834Z" stroke="white" stroke-width="6.41667" stroke-linecap="round" stroke-linejoin="round"/>
<path d="M38.5 41.7084C43.8157 41.7084 48.125 37.3991 48.125 32.0834C48.125 26.7676 43.8157 22.4584 38.5 22.4584C33.1843 22.4584 28.875 26.7676 28.875 32.0834C28.875 37.3991 33.1843 41.7084 38.5 41.7084Z" stroke="white" stroke-width="6.41667" stroke-linecap="round" stroke-linejoin="round"/>
</svg>
