<svg width="69" height="69" viewBox="0 0 69 69" fill="none" xmlns="http://www.w3.org/2000/svg">
<path d="M34.5 40.25C37.6756 40.25 40.25 37.6756 40.25 34.5C40.25 31.3244 37.6756 28.75 34.5 28.75C31.3244 28.75 28.75 31.3244 28.75 34.5C28.75 37.6756 31.3244 40.25 34.5 40.25Z" stroke="white" stroke-width="5.75" stroke-linecap="round" stroke-linejoin="round"/>
<path d="M46.6897 22.31C48.2936 23.9121 49.5659 25.8146 50.434 27.9087C51.3021 30.0028 51.7489 32.2475 51.7489 34.5144C51.7489 36.7813 51.3021 39.026 50.434 41.1201C49.5659 43.2142 48.2936 45.1167 46.6897 46.7188M22.3097 46.69C20.7059 45.088 19.4335 43.1855 18.5654 41.0914C17.6973 38.9972 17.2505 36.7526 17.2505 34.4856C17.2505 32.2187 17.6973 29.974 18.5654 27.8799C19.4335 25.7858 20.7059 23.8833 22.3097 22.2813M54.826 14.1738C60.2158 19.5652 63.2436 26.8765 63.2436 34.5C63.2436 42.1235 60.2158 49.4348 54.826 54.8263M14.1735 54.8263C8.78368 49.4348 5.75586 42.1235 5.75586 34.5C5.75586 26.8765 8.78368 19.5652 14.1735 14.1738" stroke="white" stroke-width="5.75" stroke-linecap="round" stroke-linejoin="round"/>
</svg>
