<?xml version="1.0" standalone="no"?>
<!DOCTYPE svg PUBLIC "-//W3C//DTD SVG 20010904//EN"
 "http://www.w3.org/TR/2001/REC-SVG-20010904/DTD/svg10.dtd">
<svg version="1.0" xmlns="http://www.w3.org/2000/svg"
 width="50.000000pt" height="50.000000pt" viewBox="0 0 800.000000 800.000000"
 preserveAspectRatio="xMidYMid meet">

<g transform="translate(0.000000,800.000000) scale(0.100000,-0.100000)"
fill="#ffffff" stroke="none">
<path d="M3755 6964 c-16 -2 -70 -9 -120 -14 -1121 -132 -2093 -927 -2453
-2006 -171 -513 -199 -1083 -78 -1609 259 -1136 1171 -2023 2311 -2249 72 -14
171 -31 220 -38 122 -18 609 -17 735 0 569 80 1060 290 1500 641 127 101 349
323 442 441 382 485 590 1000 649 1606 15 152 6 523 -15 668 -99 666 -378
1227 -841 1692 -465 467 -1026 748 -1699 850 -96 15 -578 28 -651 18z m329
-1031 c77 -73 549 -531 901 -873 88 -86 252 -245 365 -355 113 -109 241 -233
285 -276 l79 -79 -114 -117 c-314 -323 -454 -463 -461 -461 -4 2 -96 89 -204
193 -108 105 -270 260 -358 346 l-162 156 -3 -1243 -2 -1244 -408 2 -407 3 -5
1241 -5 1242 -210 -204 c-115 -112 -278 -270 -362 -350 l-152 -146 -23 19
c-13 10 -142 141 -287 291 l-265 274 90 87 c106 103 615 597 1099 1066 193
187 388 377 435 422 47 46 87 83 89 83 3 0 41 -35 85 -77z"/>
</g>
</svg>
